<?xml version="1.0" encoding="UTF-8"?><svg id="Layer_1" xmlns="http://www.w3.org/2000/svg" width="466.41" height="236.85" xmlns:xlink="http://www.w3.org/1999/xlink" viewBox="0 0 466.41 236.85"><defs><linearGradient id="New_Gradient_Swatch_1" x1="192.8" y1="58.15" x2="219.08" y2="31.87" gradientUnits="userSpaceOnUse"><stop offset=".27" stop-color="#ffde17"/><stop offset=".88" stop-color="#fdb940"/></linearGradient><linearGradient id="linear-gradient" x1="233.21" y1="116.94" x2="233.21" y2="66.68" gradientUnits="userSpaceOnUse"><stop offset=".19" stop-color="#10ad00"/><stop offset=".97" stop-color="#c9ee37"/></linearGradient></defs><path d="M436.53,76.53c-2.91-3.49-7.39-5.46-13.71-6.02-6.31-.56-40.38-3.12-40.38-3.12l-.36,5.08c-.07-.08-.13-.18-.2-.26-3.09-3.53-7.8-5.44-14.4-5.85h0c-2.28-.14-33.01-1.81-41.23-2.16-2.09-.09-4.35-.08-6.41.61V17.4h0c-25.87-2.64-54.33-4.1-84.22-4.1-31.74,0-61.88,1.65-89,4.6v46.17c-4.75.17-9.57.36-14.44.56-2.64.11-5.55.43-7.86,2.06l-.72-.22c-3.87-1.17-8.41-1.63-13.5-1.33-7.86.45-12.39,3.55-14.86,6.21-.01-.05-.02-.11-.03-.16l-.93-4.43-34.52,2.52.3,3.79c-3.61-2.31-8.56-3.11-15.39-2.51-5.3.47-18.44,1.7-18.44,1.7l4.69,49.64,4.3.39c2.62.24,5.14.36,7.54.36,1.94,0,3.8-.08,5.57-.24.75-.07.47-.06.45-.26v46.48l40.96.21c2.57.96,6.9,1.71,14.05,0h48.86l124.52-.08,1.94-11.89c4.19,11.05,13.26,12.54,17.8,12.54,9.54,0,15.29-3.27,18.76-7.64v6.99h56.33c3.28,0,5.68-.71,7.44-1.84l2.37.71c3.85,1.15,7.12,1.78,13.38,1.78,15.2,0,23.91-9.81,23.91-26.9,0-4.95,0-15.8-7.61-21.47,1.25.11,9.37.81,9.37.81l.92-10.64c9.93-.74,17.23-8.13,18.26-19.03.66-7.02-.45-12-3.5-15.67ZM418.74,90.4c.15-.06.28-.1.41-.13l.02.3c-.15-.04-.29-.1-.43-.16Z" fill="#fff"/><path d="M265.83,31.43c0,.87-.7,1.57-1.57,1.57s-1.57-.7-1.57-1.57.7-1.57,1.57-1.57,1.57.7,1.57,1.57ZM263.15,50.82h2.23v-15.39h-2.23v15.39ZM277.33,40.3c-.7-.33-1.47-.66-2.26-.99-.66-.27-1.27-.53-1.83-.78-.55-.24-2.69-1.1-2.69-3.37,0-.57.01-3.24,4.23-3.24,3.1,0,4.73,1.37,4.73,1.37l.83-1.98s-2.04-1.45-5.48-1.45c-6,0-6.66,3.66-6.66,5.44,0,3.24,2.54,4.45,3.21,4.8.66.35,1.42.69,2.26,1.02.66.27,1.29.53,1.89.77.58.23,1.11.52,1.56.85.44.32,1.47,1.13,1.47,2.97,0,1.23-.3,3.48-4.81,3.48-3.33,0-5.41-1.45-5.41-1.45l-.76,2.04s2.2,1.47,6.15,1.47c4.9,0,7.24-2.27,7.24-5.64,0-3.78-2.94-4.97-3.66-5.31ZM243.74,30.3h-2.32v12.6c0,1.08,0,6.23-5.22,6.23s-5.22-5.15-5.22-6.23v-12.6h-2.32v12.86c0,1.12-.12,8.09,7.53,8.09s7.53-6.97,7.53-8.09v-12.86ZM253.51,35.14c-3,0-4.76.53-5.93.86v14.82h2.23v-13.26c1.31-.33,2.53-.36,3.41-.36,3.52,0,4.2,2,4.2,5.65v7.97h2.23v-8.58c0-3.57-.97-7.1-6.14-7.1ZM292.7,49.14c-4.56,0-7.43-3.11-7.43-8.58s2.86-8.58,7.43-8.58c2,0,3.43.57,4.41,1.17l1.06-1.84s-2.01-1.44-5.85-1.44c-4.97,0-9.49,3.73-9.49,10.66,0,0,0,.02,0,.03s0,.02,0,.03c0,6.94,4.52,10.66,9.49,10.66,3.84,0,5.85-1.44,5.85-1.44l-1.06-1.84c-.99.6-2.41,1.17-4.41,1.17Z"/><path d="M172.47,41.4c-.82-.79-.59-1.18.5-.87l11.04,3.15c1.09.31,1.73-.33,1.42-1.42l-3.15-11.04c-.31-1.09.08-1.32.87-.5l7.98,8.25c.79.82,1.66.58,1.94-.52l2.79-11.13c.14-.55.32-.83.5-.83h-28.11v28.11c3.67-1.64,8.46-2.95,13.96-3.79l-9.73-9.42Z" fill="#0052c4"/><path d="M196.34,52.11c11.39,0,21.54.98,28.11,2.5-3.67-1.64-8.46-2.95-13.96-3.79l9.73-9.42c.82-.79.59-1.18-.5-.87l-11.04,3.15c-1.09.31-1.73-.33-1.42-1.42l3.15-11.04c.31-1.09-.08-1.32-.87-.5l-7.98,8.25c-.79.82-1.66.58-1.94-.52l-2.79-11.13c-.14-.55-.32-.83-.5-.83v25.61Z" fill="url(#New_Gradient_Swatch_1)"/><path d="M118.26,133.7c-.39-2.01-.52-4.35-.52-5.85,0-4.48,1.69-5.2,6.62-5.2h20.13c.33,1.56.39,3.38.39,4.81,0,4.61-1.49,6.1-5.26,5.85l-2.14-.13v30.4h-12.93v-30.27l-6.3.39ZM149.57,163.58v-40.2c1.43-.52,4.94-1.04,7.4-1.04,5,0,5.59,1.17,5.59,7.4v7.47h4.16v-14.03c1.49-.45,4.55-.84,7.4-.84,5.07,0,5.59,1.17,5.59,7.4v33.84h-12.99v-15.65h-4.16v15.65h-12.99ZM197.89,152.99l11.43-.39c.39,1.82.45,3.77.45,5.26,0,4.81-1.82,5.72-6.82,5.72h-10.72c-6.75,0-7.34-.65-7.34-6.75v-34.16h24.29c.26,1.88.32,3.64.32,4.94,0,4.81-1.82,5.58-6.95,5.52l-4.68-.06v4.55h10.13c.39,1.88.52,3.64.52,5.46,0,4.55-1.82,5.2-7.02,5.13l-3.64-.06v4.87ZM224.33,123.31c2.01-.52,5.33-.98,7.99-.98,4.94,0,6.36.78,6.88,7.08l1.43,17.93h.91l2.21-24.29c2.47-.39,5.39-.65,7.92-.65,6.62,0,8.18.71,9.09,6.89l1.88,18.05h.91l1.43-24.68h12.86l-6.69,40.92h-15.91l-3.12-26.69h-.71l-3.31,26.69h-16.69l-7.08-40.27ZM299.09,122.01c10.26,0,15.07,6.75,15.07,19.87,0,12.34-3.12,22.34-18.83,22.34-10.85,0-14.81-9.35-14.81-21.5s3.57-20.72,18.58-20.72ZM297.4,152.6c.78,0,1.75-.26,2.21-.58.52-1.62.97-5,.97-8.96,0-7.01-.91-9.55-3.31-9.55-.78,0-1.75.26-2.21.58-.52,1.62-.97,5-.97,8.96,0,7.02.91,9.55,3.31,9.55ZM334.3,158.77l-2.21-8.31v13.12h-12.8v-40.92h15.2c10.46,0,13.83,4.81,13.83,12.73,0,5.59-2.92,9.35-5.2,10.59l6.5,16.3c-1.49.84-5.33,1.95-8.51,1.95-4.35,0-5.78-1.62-6.82-5.46ZM334.49,141.11c.65-.78,1.17-2.34,1.17-4.29,0-2.86-.46-4.22-2.66-4.22h-.91v8.64c.26.06.58.06.84.06.32,0,.91,0,1.56-.19ZM367.23,152.67l9.48-.33c.26,1.88.39,3.51.39,4.87,0,4.74-1.75,6.37-6.69,6.37h-16.17v-40.2c1.88-.71,5.39-1.04,7.21-1.04,5.78,0,5.78,1.3,5.78,7.86v22.47ZM381.71,122.66h15.52c11.82,0,15.07,6.95,15.07,19.87,0,11.17-4.03,21.69-18.7,21.69-5.85,0-8.64-.58-11.89-1.56v-40.01ZM394.58,153.38c.45.19,1.1.19,1.49.19.52,0,1.56-.19,2.08-.58.71-2.47,1.17-6.1,1.17-10.39,0-7.92-.78-9.81-3.7-9.81h-1.04v20.59ZM72.34,122.66h15.85l3.57,22.47.78-.06v-22.41h10.91v40.14c-2.79.84-6.69,1.43-10.26,1.43-5.65,0-6.95-2.21-7.73-8.12l-1.88-14.55h-.78v22.02h-10.46v-40.92ZM66.98,122.59h-12.87v40.86h12.87v-40.86Z" fill="#002e9c"/><path d="M35.44,116.6c-1.26-13.38-2.53-26.77-3.8-40.15,5.29-.5,7.93-.74,13.22-1.21,9.32-.82,15.34,1.11,15.96,8.81.26,3.24-1.08,7.06-3.35,9.14,3.67,1.32,5.89,4.27,6.21,8.22.66,8.22-4.21,14.26-16.07,15.31-4.34.39-8.68.2-12.17-.12ZM45.38,84.84c.22,2.54.34,3.8.56,6.34.87-.08,1.3-.11,2.16-.19.71-.97,1-2.24.86-3.86-.12-1.36-.89-2.6-2.8-2.43-.31.05-.47.08-.78.13ZM46.67,99.46c.26,2.98.39,4.46.66,7.44.4.09.79.06,1.05.04.52-.05,1.5-.25,1.78-.61.38-.48.66-2.21.55-3.5-.14-1.62-.52-2.95-1.5-3.59-1.02.09-1.53.13-2.55.22ZM80.53,102.79c4.58-.49,6.87-.73,11.46-1.19.51,1.79.71,3.73.81,5.22.32,4.8-1.44,5.82-6.44,6.17-4.28.3-6.43.46-10.71.78-6.75.51-7.38-.08-7.86-6.17-1.07-13.62-1.61-20.43-2.68-34.06,9.9-.78,14.85-1.14,24.75-1.81.39,1.86.57,3.61.66,4.9.32,4.79-1.47,5.69-6.68,5.99-1.9.11-2.85.16-4.75.27.13,1.81.2,2.72.33,4.54,4.1-.3,6.15-.44,10.25-.72.52,1.85.77,3.59.89,5.41.31,4.54-1.48,5.3-6.72,5.61-1.47.08-2.2.12-3.67.2.14,1.94.21,2.92.35,4.86ZM110.14,69.82c4.7-.27,8.58.17,11.69,1.11.05,8.52-1.7,10.49-4.27,10.63-3.1.17-4.08-.82-7.5-.62-.53.03-1.24.1-1.44.28-.19.17-.21.86-.19,1.25.03.58.35,1.41,4.16,2.3,8.56,1.98,10.97,6.62,11.27,12.53.46,8.82-5.45,14.32-13.82,14.82-6.82.4-11.94-.92-12.65-2.02-2.1-3.25,1.6-9.74,3.88-9.88,3.07-.19,4.54,1.28,8,1.08.46-.03.91-.12,1.36-.27,0,0,.16-.6.14-.99-.08-1.36-.52-2.25-4.86-3.42-6.13-1.65-9.88-4.52-10.37-11.98-.52-7.97,4.07-14.21,14.6-14.82ZM126.5,80.65c-.5-1.99-.75-4.32-.82-5.81-.23-4.48,1.46-5.28,6.5-5.52,8.21-.39,12.32-.56,20.54-.87.39,1.54.52,3.36.58,4.79.17,4.61-1.29,6.15-5.12,6.05-.87-.02-1.31-.03-2.18-.04.5,12.15.75,18.22,1.25,30.37-5.17.21-7.76.33-12.93.57-.57-12.09-.86-18.14-1.43-30.23-2.55.28-3.82.42-6.37.7ZM183.32,108.43c-5.2.12-7.8.2-13.01.35-.41-13.63-.82-27.27-1.23-40.9,9.47-.29,14.2-.4,23.67-.58.3,1.62.4,3.56.42,4.86.08,4.35-1.41,5.67-6.76,5.72-1.53,0-2.3.01-3.83.02.05,2.29.08,3.43.14,5.71,3.68-.09,5.53-.13,9.21-.2.37,2.14.54,3.95.56,5.32.09,4.61-1.79,5.42-6.97,5.41-1.02,0-1.53,0-2.55,0,.14,5.71.21,8.57.34,14.29ZM230.19,97.24c4.6-.16,6.9-.24,11.51-.38.38,1.82.44,3.77.44,5.26-.02,4.81-1.84,5.7-6.85,5.7-4.29,0-6.44,0-10.73.02-6.76.03-7.36-.6-7.4-6.71-.11-13.67-.16-20.5-.27-34.16,9.92-.08,14.88-.09,24.8-.05.26,1.88.32,3.64.31,4.94-.02,4.8-1.87,5.57-7.08,5.5-1.9-.03-2.85-.04-4.75-.06,0,1.82,0,2.73,0,4.55,4.11,0,6.16,0,10.27,0,.39,1.88.51,3.64.51,5.46-.02,4.55-1.85,5.19-7.09,5.12-1.47-.03-2.2-.04-3.67-.06,0,1.95,0,2.92,0,4.87ZM260.16,97.08c3.82-.08,5.73-.12,9.55-.19.23,1.89.33,3.51.31,4.88-.08,4.74-1.86,6.33-6.81,6.26-6.48-.09-9.72-.12-16.2-.16.08-13.4.17-26.8.25-40.2,1.93-.7,5.51-1,7.37-.98,5.9.06,5.89,1.36,5.8,7.92-.11,8.99-.17,13.48-.28,22.47ZM275.32,67.31c6.34.12,9.51.2,15.84.36,12.06.32,15.14,7.41,14.7,20.33-.38,11.16-4.76,21.5-19.45,21.13-5.85-.15-8.63-.79-11.87-1.82.26-13.33.52-26.67.77-40ZM287.66,98.31c.45.21,1.1.22,1.5.23.52.01,1.57-.15,2.11-.53.79-2.45,1.35-6.07,1.46-10.36.22-7.92-.52-9.83-3.49-9.9-.42-.01-.63-.02-1.05-.03-.21,8.23-.31,12.35-.52,20.58ZM210.81,67.09c-5.26.06-7.88.09-13.14.18.23,13.62.46,27.24.69,40.85,5.16-.09,7.73-.12,12.89-.18-.15-13.62-.29-27.24-.44-40.86ZM319.1,79.65c-.32-2.03-.35-4.37-.3-5.86.18-4.48,1.93-5.13,6.96-4.91,8.22.35,12.32.55,20.54.98.25,1.57.22,3.39.15,4.82-.24,4.6-1.84,6.01-5.65,5.56-.87-.1-1.3-.14-2.17-.24-.6,12.14-.9,18.22-1.49,30.36-5.17-.25-7.76-.37-12.93-.6.52-12.1.78-18.14,1.3-30.24-2.56.05-3.85.07-6.41.12ZM364.47,107.07c-.68-3.37-1.02-5.06-1.71-8.43-.32,5.24-.48,7.86-.8,13.1-5.12-.31-7.68-.46-12.8-.74.75-13.62,1.49-27.24,2.24-40.86,6.2.34,9.3.52,15.5.91,10.66.66,13.77,5.72,13.23,13.62-.38,5.57-3.59,9.13-5.96,10.21,2.19,6.68,3.27,10.02,5.42,16.71-1.55.74-5.46,1.58-8.64,1.37-4.35-.28-5.67-1.99-6.48-5.88ZM365.77,89.45c.7-.74,1.33-2.26,1.45-4.2.18-2.85-.2-4.24-2.44-4.38-.37-.02-.55-.03-.92-.06-.21,3.45-.32,5.17-.53,8.62.26.08.59.1.85.12.33.02.92.06,1.59-.1ZM422.12,75.18c10.12.89,13.46,5.66,12.49,16.01-.85,8.99-7.01,15.11-16.33,14.3-.59-.05-1.11-.1-1.49-.2-.36,4.17-.54,6.25-.9,10.42-5.11-.44-7.67-.66-12.78-1.07,1.1-13.59,2.19-27.19,3.29-40.79,6.3.51,9.45.77,15.74,1.33ZM420.75,94.49c.59-.71.79-2.99.98-5.13.23-2.65-.02-4.24-1.73-4.39-.53-.05-1.06-.03-1.46,0-.33,3.86-.5,5.78-.84,9.64.26.09.84.2,1.17.23.33.03,1.5.1,1.88-.36ZM400.14,73.42c-5.24-.41-7.87-.6-13.11-.98-.97,13.59-1.94,27.17-2.91,40.76,5.15.37,7.72.56,12.87.96,1.05-13.58,2.11-27.16,3.16-40.74Z" fill="url(#linear-gradient)"/><path d="M192.14,211.16c-1.07.71-2.19,1.3-3.32,1.84l12.62-.3c.24,1.66.36,3.08.36,4.33,0,3.91-1.36,5.93-5.75,5.93h-18.43c-.83-1.9-1.24-4.62-1.24-6.76,0-4.86,3.44-8.59,7.7-12.5,2.55-2.31,4.68-4.09,4.68-6.1,0-1.01-.77-1.6-1.95-1.6-1.9,0-4.33,2.31-7.41,2.31-1.42,0-3.2-1.78-3.79-8.77,2.31-1.84,6.87-4.5,13.04-4.5,7.82,0,12.44,3.73,12.44,12.21,0,5.93-4.03,10.73-8.95,13.93Z" fill="#fff"/><path d="M218.69,185.03c9.42,0,12.92,5.57,12.92,19.2,0,8.47-2.73,19.32-13.39,19.32-9.54,0-13.09-7.76-13.09-19.97,0-10.96,3.61-18.55,13.57-18.55ZM218.21,213.12c.12,0,.59-.06.89-.18.35-1.72.47-6.46.47-9.01,0-7.88-.18-8.59-1.42-8.59-.12,0-.59.06-.89.18-.36,1.72-.47,6.46-.47,9.01,0,7.88.18,8.59,1.42,8.59Z" fill="#fff"/><path d="M251.4,211.16c-1.07.71-2.19,1.3-3.32,1.84l12.62-.3c.24,1.66.36,3.08.36,4.33,0,3.91-1.36,5.93-5.75,5.93h-18.43c-.83-1.9-1.24-4.62-1.24-6.76,0-4.86,3.44-8.59,7.7-12.5,2.55-2.31,4.68-4.09,4.68-6.1,0-1.01-.77-1.6-1.95-1.6-1.9,0-4.33,2.31-7.41,2.31-1.42,0-3.2-1.78-3.79-8.77,2.31-1.84,6.87-4.5,13.04-4.5,7.82,0,12.44,3.73,12.44,12.21,0,5.93-4.03,10.73-8.95,13.93Z" fill="#fff"/><path d="M290.81,209.03c0,8.3-4.56,14.52-13.27,14.52s-13.15-6.76-13.15-19.02c0-14.1,6.64-19.5,15.52-19.5,3.32,0,6.52.59,9.19,1.9.53,6.93-1.3,8.89-4.44,8.89-1.96,0-3.85-.59-5.87-.59-.35,0-1.6.12-1.6.12-.47,1.01-.77,2.19-.83,3.38,1.72-.89,3.97-1.07,5.21-1.07,2.73,0,9.24.42,9.24,11.38ZM278.9,213.18c.24-.59.47-1.54.47-3.02,0-1.95-.36-2.67-1.48-2.67-.59,0-1.42.24-1.42.24,0,4.21.65,5.57,1.78,5.57.47,0,.65-.12.65-.12Z" fill="#fff"/></svg>