<svg xmlns="http://www.w3.org/2000/svg" viewBox="0 0 190.18 78.22"><defs><style>.cls-1{fill:#231f20;}.cls-2{fill:#27615a;}.cls-3{fill:#f1f2f2;}.cls-3,.cls-4{fill-rule:evenodd;}.cls-4,.cls-5{fill:#fff;}</style></defs><g id="Layer_2" data-name="Layer 2"><path class="cls-1" d="M78.11,13.69l-.54,1.51a1.62,1.62,0,0,0-.1.34,1.7,1.7,0,0,0,0,.28.6.6,0,0,0,.24.53,1.2,1.2,0,0,0,.72.17h.33v.61H75.21v-.61h.27a1.28,1.28,0,0,0,.36,0,.65.65,0,0,0,.27-.17,1.77,1.77,0,0,0,.23-.35c.07-.14.15-.33.24-.56l3.18-8.54h1.13l3.25,8.9a1.84,1.84,0,0,0,.17.37.83.83,0,0,0,.21.24,1.11,1.11,0,0,0,.27.12,1.86,1.86,0,0,0,.36,0h.2v.61h-4v-.61h.33q.87,0,.87-.69a.71.71,0,0,0,0-.24l-.08-.29-.58-1.61Zm2.63-3.23c-.15-.43-.29-.83-.41-1.2S80.1,8.53,80,8.18c0,.18-.07.34-.11.51s-.09.32-.15.49-.11.35-.17.53-.14.39-.23.62l-1,2.64h3.24Z"/><path class="cls-1" d="M90.47,17.27A5.92,5.92,0,0,1,89,17.09a2.91,2.91,0,0,1-1.14-.57,2.44,2.44,0,0,1-.71-1,3.92,3.92,0,0,1-.25-1.5V8.44a1.23,1.23,0,0,0-.09-.51.81.81,0,0,0-.26-.29.92.92,0,0,0-.37-.14,3.44,3.44,0,0,0-.46,0h-.18V6.86h4.18v.61h-.19a3.29,3.29,0,0,0-.45,0,.92.92,0,0,0-.38.15A.72.72,0,0,0,88.4,8a1.33,1.33,0,0,0-.1.54v5.61a2.76,2.76,0,0,0,.18,1.06,1.86,1.86,0,0,0,.5.71,1.92,1.92,0,0,0,.76.4,3.25,3.25,0,0,0,1,.13,3.12,3.12,0,0,0,1.07-.17,2,2,0,0,0,.75-.46,2,2,0,0,0,.45-.71,2.94,2.94,0,0,0,.14-.91V8.44A1.23,1.23,0,0,0,93,7.93a.81.81,0,0,0-.26-.29.91.91,0,0,0-.38-.14,3.19,3.19,0,0,0-.45,0h-.18V6.86h3.61v.61h-.19a3.44,3.44,0,0,0-.46,0,.88.88,0,0,0-.37.15.73.73,0,0,0-.26.31A1.35,1.35,0,0,0,94,8.5v5.69a3.49,3.49,0,0,1-.23,1.29,2.56,2.56,0,0,1-.67,1,3.13,3.13,0,0,1-1.11.61A5,5,0,0,1,90.47,17.27Z"/><path class="cls-1" d="M99.35,17.27a4.58,4.58,0,0,1-1.24-.15,2.88,2.88,0,0,1-.9-.41,1.86,1.86,0,0,1-.55-.64,1.89,1.89,0,0,1-.18-.82,1,1,0,0,1,.27-.71,1.09,1.09,0,0,1,.77-.26,3.51,3.51,0,0,0,.14.86,2.14,2.14,0,0,0,.34.73,1.7,1.7,0,0,0,1.46.7A2.26,2.26,0,0,0,101,16.1a1.68,1.68,0,0,0,.54-1.35,1.85,1.85,0,0,0-.11-.69,1.52,1.52,0,0,0-.37-.56,3.23,3.23,0,0,0-.68-.49c-.29-.16-.64-.32-1.06-.5a7.5,7.5,0,0,1-1.17-.58,3.36,3.36,0,0,1-.82-.7,2.61,2.61,0,0,1-.5-.85,3.47,3.47,0,0,1-.16-1.06,2.44,2.44,0,0,1,.24-1.1,2.26,2.26,0,0,1,.65-.82,3.15,3.15,0,0,1,1-.51,4.52,4.52,0,0,1,1.26-.17,4.36,4.36,0,0,1,1.14.13,3,3,0,0,1,.84.36,1.73,1.73,0,0,1,.53.51,1.16,1.16,0,0,1,.18.61.85.85,0,0,1-.31.7,1.29,1.29,0,0,1-.82.23,2.5,2.5,0,0,0-.09-.66A1.47,1.47,0,0,0,101,8a1.44,1.44,0,0,0-.49-.42,1.63,1.63,0,0,0-.77-.16,2.17,2.17,0,0,0-.74.12,1.33,1.33,0,0,0-.55.33,1.39,1.39,0,0,0-.34.51,1.83,1.83,0,0,0-.12.68,2.19,2.19,0,0,0,.11.75,1.54,1.54,0,0,0,.37.59,3.08,3.08,0,0,0,.7.5,8.87,8.87,0,0,0,1,.49,9.19,9.19,0,0,1,1.13.54,4,4,0,0,1,.83.65,2.44,2.44,0,0,1,.53.79,2.57,2.57,0,0,1,.18,1,2.8,2.8,0,0,1-.25,1.22,2.42,2.42,0,0,1-.71.91,3,3,0,0,1-1.12.56A5,5,0,0,1,99.35,17.27Z"/><path class="cls-1" d="M108.66,15.49a1.32,1.32,0,0,0,.09.54.73.73,0,0,0,.26.31.88.88,0,0,0,.37.15,3.44,3.44,0,0,0,.46,0h.33v.61H105.7v-.61H106a3.29,3.29,0,0,0,.45,0,.86.86,0,0,0,.37-.13.62.62,0,0,0,.26-.29,1.23,1.23,0,0,0,.09-.51v-8h-1.37a1.36,1.36,0,0,0-.53.09,1,1,0,0,0-.35.26,1.17,1.17,0,0,0-.21.38,3,3,0,0,0-.09.45l-.08.62h-.74l.07-2.52H112l.07,2.52h-.74l-.07-.62a2.11,2.11,0,0,0-.1-.45,1.37,1.37,0,0,0-.2-.38,1,1,0,0,0-.35-.26,1.47,1.47,0,0,0-.55-.09h-1.39Z"/><path class="cls-1" d="M120.53,15.37a4,4,0,0,0,.71.87,1.22,1.22,0,0,0,.8.28h0v.61h-.2a11,11,0,0,1-1.11-.05,2.77,2.77,0,0,1-.73-.19,1.65,1.65,0,0,1-.51-.39,4.05,4.05,0,0,1-.46-.67l-1.95-3.23h-1.19v3a1.23,1.23,0,0,0,.09.51.67.67,0,0,0,.26.29.91.91,0,0,0,.37.13,3.44,3.44,0,0,0,.46,0h.19v.61h-4.19v-.61h.19a3.29,3.29,0,0,0,.45,0,.86.86,0,0,0,.37-.13.62.62,0,0,0,.26-.29,1.23,1.23,0,0,0,.09-.51V8.44a1.23,1.23,0,0,0-.09-.51.73.73,0,0,0-.26-.29.87.87,0,0,0-.37-.14,3.29,3.29,0,0,0-.45,0h-.19V6.86H117a4.52,4.52,0,0,1,2.78.7,2.43,2.43,0,0,1,.91,2.08,2.55,2.55,0,0,1-.18,1,2.63,2.63,0,0,1-.49.75,2.9,2.9,0,0,1-.68.53,4.17,4.17,0,0,1-.76.33Zm-4.6-3.44h1a3.46,3.46,0,0,0,1-.14,1.62,1.62,0,0,0,.68-.43,1.78,1.78,0,0,0,.36-.7,4.07,4.07,0,0,0,.11-1,3.5,3.5,0,0,0-.12-1,1.45,1.45,0,0,0-.39-.66,1.64,1.64,0,0,0-.69-.37,3.86,3.86,0,0,0-1-.12h-1Z"/><path class="cls-1" d="M125.11,13.69l-.54,1.51a1.62,1.62,0,0,0-.1.34,1.7,1.7,0,0,0,0,.28.6.6,0,0,0,.24.53,1.2,1.2,0,0,0,.72.17h.33v.61h-3.51v-.61h.27a1.28,1.28,0,0,0,.36,0,.65.65,0,0,0,.27-.17,1.77,1.77,0,0,0,.23-.35c.07-.14.15-.33.24-.56l3.18-8.54h1.13l3.25,8.9a1.84,1.84,0,0,0,.17.37.83.83,0,0,0,.21.24,1.11,1.11,0,0,0,.27.12,1.86,1.86,0,0,0,.36,0h.2v.61h-4v-.61h.33q.87,0,.87-.69a.71.71,0,0,0,0-.24l-.08-.29-.58-1.61Zm2.63-3.23c-.15-.43-.29-.83-.41-1.2s-.23-.73-.31-1.08c0,.18-.07.34-.11.51s-.09.32-.15.49-.11.35-.17.53-.14.39-.23.62l-1,2.64h3.24Z"/><path class="cls-1" d="M133.11,17.13v-.61h.18a3.33,3.33,0,0,0,.46,0,1,1,0,0,0,.38-.15.72.72,0,0,0,.25-.31,1.32,1.32,0,0,0,.09-.54v-7a1.35,1.35,0,0,0-.09-.54.72.72,0,0,0-.25-.31,1,1,0,0,0-.38-.15,3.33,3.33,0,0,0-.46,0h-.18V6.86h4.18v.61h-.19a3.19,3.19,0,0,0-.45,0,1,1,0,0,0-.38.14.79.79,0,0,0-.25.29,1.08,1.08,0,0,0-.1.51v8h2.84a1.18,1.18,0,0,0,.55-.12,1,1,0,0,0,.38-.3,1.47,1.47,0,0,0,.22-.41,2,2,0,0,0,.11-.47l.14-1.07h.75l-.09,3.09Z"/><path class="cls-1" d="M142.28,17.13v-.61h.18a3.23,3.23,0,0,0,.46,0,1,1,0,0,0,.38-.15.65.65,0,0,0,.25-.31,1.32,1.32,0,0,0,.09-.54v-7a1.35,1.35,0,0,0-.09-.54.65.65,0,0,0-.25-.31,1,1,0,0,0-.38-.15,3.23,3.23,0,0,0-.46,0h-.18V6.86h4.18v.61h-.19a3.29,3.29,0,0,0-.45,0,.92.92,0,0,0-.38.15.72.72,0,0,0-.25.31,1.35,1.35,0,0,0-.09.54v7a1.32,1.32,0,0,0,.09.54.72.72,0,0,0,.25.31.92.92,0,0,0,.38.15,3.29,3.29,0,0,0,.45,0h.19v.61Z"/><path class="cls-1" d="M150.13,13.69l-.54,1.51a1.62,1.62,0,0,0-.1.34,1.7,1.7,0,0,0,0,.28.6.6,0,0,0,.24.53,1.2,1.2,0,0,0,.72.17h.33v.61h-3.51v-.61h.27a1.28,1.28,0,0,0,.36,0,.65.65,0,0,0,.27-.17,1.41,1.41,0,0,0,.22-.35,4.5,4.5,0,0,0,.25-.56l3.18-8.54h1.13l3.25,8.9a1.84,1.84,0,0,0,.17.37.83.83,0,0,0,.21.24,1.11,1.11,0,0,0,.27.12,1.86,1.86,0,0,0,.36,0h.19v.61h-4v-.61h.33q.87,0,.87-.69a.71.71,0,0,0,0-.24l-.08-.29-.58-1.61Zm2.63-3.23c-.15-.43-.29-.83-.41-1.2A9.9,9.9,0,0,1,152,8.18c0,.18-.07.34-.11.51s-.09.32-.15.49-.11.35-.17.53-.14.39-.23.62l-1,2.64h3.24Z"/><path class="cls-1" d="M165.76,17.13l-5.39-8.29v6.65a1.32,1.32,0,0,0,.09.54.72.72,0,0,0,.25.31.92.92,0,0,0,.38.15,3.33,3.33,0,0,0,.46,0h.18v.61h-3.6v-.61h.18a3.33,3.33,0,0,0,.46,0,.88.88,0,0,0,.37-.15.67.67,0,0,0,.26-.31,1.32,1.32,0,0,0,.09-.54v-7a1.08,1.08,0,0,0-.1-.51.71.71,0,0,0-.25-.29,1,1,0,0,0-.38-.14,3.19,3.19,0,0,0-.45,0h-.18V6.86h2.63l5.14,8V8.44a1.23,1.23,0,0,0-.09-.51.73.73,0,0,0-.26-.29.87.87,0,0,0-.37-.14,3.33,3.33,0,0,0-.46,0h-.18V6.86h3.6v.61H168a3.33,3.33,0,0,0-.46,0,.88.88,0,0,0-.37.15.67.67,0,0,0-.26.31,1.35,1.35,0,0,0-.09.54v8.63Z"/><path class="cls-1" d="M80.41,34.34a5.87,5.87,0,0,1-1.52-.18,2.91,2.91,0,0,1-1.14-.57,2.46,2.46,0,0,1-.72-1,4.12,4.12,0,0,1-.24-1.49V25.51a1,1,0,0,0-.1-.5.75.75,0,0,0-.25-.3,1,1,0,0,0-.38-.14,3.19,3.19,0,0,0-.45,0h-.18v-.6h4.18v.6h-.19a3.44,3.44,0,0,0-.46,0,1,1,0,0,0-.37.15.65.65,0,0,0-.25.31,1.21,1.21,0,0,0-.1.54v5.61a2.76,2.76,0,0,0,.18,1.06,1.9,1.9,0,0,0,.5.72,2,2,0,0,0,.76.4,3.6,3.6,0,0,0,1,.12,2.92,2.92,0,0,0,1.08-.17,2,2,0,0,0,.75-.46,1.81,1.81,0,0,0,.44-.71,2.66,2.66,0,0,0,.15-.9V25.51A1.13,1.13,0,0,0,83,25a.75.75,0,0,0-.25-.3,1,1,0,0,0-.38-.14,3.19,3.19,0,0,0-.45,0h-.19v-.6H85.3v.6h-.19a3.19,3.19,0,0,0-.45,0,1.08,1.08,0,0,0-.38.15A.72.72,0,0,0,84,25a1.37,1.37,0,0,0-.1.54v5.69a3.49,3.49,0,0,1-.22,1.29,2.58,2.58,0,0,1-.68,1,2.93,2.93,0,0,1-1.1.61A5,5,0,0,1,80.41,34.34Z"/><path class="cls-1" d="M93.91,34.2l-5.39-8.29v6.65a1.32,1.32,0,0,0,.09.54.81.81,0,0,0,.25.32.91.91,0,0,0,.38.14,3.29,3.29,0,0,0,.45,0h.19v.61h-3.6v-.61h.18a3.33,3.33,0,0,0,.46,0,.87.87,0,0,0,.37-.14.75.75,0,0,0,.26-.32,1.32,1.32,0,0,0,.09-.54v-7a1,1,0,0,0-.1-.5.75.75,0,0,0-.25-.3,1,1,0,0,0-.38-.14,3.19,3.19,0,0,0-.45,0h-.18v-.6h2.63l5.14,7.94V25.51A1.15,1.15,0,0,0,94,25a.7.7,0,0,0-.26-.3.87.87,0,0,0-.37-.14,3.44,3.44,0,0,0-.46,0h-.19v-.6h3.61v.6h-.18a3.33,3.33,0,0,0-.46,0,1,1,0,0,0-.37.15A.67.67,0,0,0,95,25a1.38,1.38,0,0,0-.09.54V34.2Z"/><path class="cls-1" d="M97.46,34.2v-.61h.19a3.44,3.44,0,0,0,.46,0,.92.92,0,0,0,.37-.14.73.73,0,0,0,.25-.32,1.16,1.16,0,0,0,.1-.54v-7a1.21,1.21,0,0,0-.1-.54.65.65,0,0,0-.25-.31,1.11,1.11,0,0,0-.37-.15,3.44,3.44,0,0,0-.46,0h-.19v-.6h4.19v.6h-.19a3.44,3.44,0,0,0-.46,0,1,1,0,0,0-.37.15.73.73,0,0,0-.26.31,1.38,1.38,0,0,0-.09.54v7a1.32,1.32,0,0,0,.09.54.83.83,0,0,0,.26.32.87.87,0,0,0,.37.14,3.44,3.44,0,0,0,.46,0h.19v.61Z"/><path class="cls-1" d="M106.72,34.2l-3.1-8.9a1.61,1.61,0,0,0-.17-.37.83.83,0,0,0-.21-.24,1.11,1.11,0,0,0-.27-.12,2.05,2.05,0,0,0-.37,0h-.19v-.6h4v.6H106a1.08,1.08,0,0,0-.65.16.64.64,0,0,0-.21.53,1,1,0,0,0,0,.24,2.33,2.33,0,0,0,.09.29l1.58,4.67c.14.42.27.84.37,1.24s.19.77.27,1.12c.08-.35.17-.72.27-1.1s.23-.81.39-1.26l1.59-4.57a2.46,2.46,0,0,0,.09-.34,1.7,1.7,0,0,0,0-.28.61.61,0,0,0-.24-.54,1.24,1.24,0,0,0-.71-.16h-.33v-.6h3.5v.6h-.27a1.28,1.28,0,0,0-.36,0,.59.59,0,0,0-.28.17,1.18,1.18,0,0,0-.23.34,4.6,4.6,0,0,0-.22.57l-3,8.54Z"/><path class="cls-1" d="M115.69,33.48h2.77a1.7,1.7,0,0,0,.59-.09,1.16,1.16,0,0,0,.4-.26,1.37,1.37,0,0,0,.26-.37,1.83,1.83,0,0,0,.12-.46l.1-.61h.75l-.1,2.51h-7.7v-.61h.18a3.19,3.19,0,0,0,.45,0,1,1,0,0,0,.38-.13.66.66,0,0,0,.25-.29,1.08,1.08,0,0,0,.1-.51V25.57a1.38,1.38,0,0,0-.09-.54.73.73,0,0,0-.26-.31,1,1,0,0,0-.37-.15,3.44,3.44,0,0,0-.46,0h-.18v-.6h7.24l.07,2.51h-.74l-.07-.62a2.12,2.12,0,0,0-.11-.45A1.17,1.17,0,0,0,119,25a1,1,0,0,0-.37-.25,1.37,1.37,0,0,0-.56-.1h-2.41v3.83h3.47v.7h-3.47Z"/><path class="cls-1" d="M129.47,32.44a3.52,3.52,0,0,0,.71.87,1.18,1.18,0,0,0,.8.28h0v.61h-.21a10.88,10.88,0,0,1-1.1-.05A2.5,2.5,0,0,1,129,34a1.39,1.39,0,0,1-.51-.39,5.26,5.26,0,0,1-.46-.66l-2-3.24h-1.19v3a1.08,1.08,0,0,0,.1.51.6.6,0,0,0,.25.29,1,1,0,0,0,.38.13,3.19,3.19,0,0,0,.45,0h.19v.61h-4.18v-.61h.18a3.19,3.19,0,0,0,.45,0,1,1,0,0,0,.38-.13.6.6,0,0,0,.25-.29,1.08,1.08,0,0,0,.1-.51V25.51a1,1,0,0,0-.1-.5.68.68,0,0,0-.25-.3,1,1,0,0,0-.38-.14,3.19,3.19,0,0,0-.45,0h-.18v-.6h3.86a4.57,4.57,0,0,1,2.78.69,2.8,2.8,0,0,1,.73,3.09,2.51,2.51,0,0,1-.49.74,2.71,2.71,0,0,1-.68.53,4.66,4.66,0,0,1-.76.34ZM124.86,29h1a3.58,3.58,0,0,0,1.06-.14,1.67,1.67,0,0,0,.67-.42,1.65,1.65,0,0,0,.36-.71,4.07,4.07,0,0,0,.11-1,3.5,3.5,0,0,0-.12-1,1.45,1.45,0,0,0-.39-.66,1.52,1.52,0,0,0-.69-.37,3.83,3.83,0,0,0-1-.12h-1Z"/><path class="cls-1" d="M134.69,34.34a4.55,4.55,0,0,1-1.23-.15,2.67,2.67,0,0,1-.9-.41,1.78,1.78,0,0,1-.55-.64,1.86,1.86,0,0,1-.18-.82.93.93,0,0,1,.27-.7,1,1,0,0,1,.77-.27,3.44,3.44,0,0,0,.14.86,2.14,2.14,0,0,0,.34.73,1.7,1.7,0,0,0,1.46.7,2.26,2.26,0,0,0,1.51-.47,1.68,1.68,0,0,0,.54-1.34,1.87,1.87,0,0,0-.11-.7,1.52,1.52,0,0,0-.37-.56,3.07,3.07,0,0,0-.69-.49,8.87,8.87,0,0,0-1.05-.49,8.48,8.48,0,0,1-1.17-.59,3.85,3.85,0,0,1-.83-.69,2.82,2.82,0,0,1-.49-.86,3.42,3.42,0,0,1-.16-1.06,2.44,2.44,0,0,1,.24-1.1,2.34,2.34,0,0,1,.65-.82,3.15,3.15,0,0,1,1-.51,4.52,4.52,0,0,1,1.26-.17,4.36,4.36,0,0,1,1.14.13,3,3,0,0,1,.84.36,1.65,1.65,0,0,1,.53.52,1.11,1.11,0,0,1,.18.6.85.85,0,0,1-.31.7,1.29,1.29,0,0,1-.82.24,2.52,2.52,0,0,0-.09-.67,1.54,1.54,0,0,0-.27-.58,1.44,1.44,0,0,0-.49-.42,1.76,1.76,0,0,0-.77-.16,2.13,2.13,0,0,0-.74.12,1.33,1.33,0,0,0-.55.33,1.27,1.27,0,0,0-.34.51,1.83,1.83,0,0,0-.12.68,2.19,2.19,0,0,0,.11.75,1.47,1.47,0,0,0,.37.59,3.08,3.08,0,0,0,.7.5,8.87,8.87,0,0,0,1.05.49,9,9,0,0,1,1.12.54,4.06,4.06,0,0,1,.84.65,2.44,2.44,0,0,1,.53.79,2.57,2.57,0,0,1,.18,1,2.8,2.8,0,0,1-.25,1.22,2.42,2.42,0,0,1-.71.91,3.2,3.2,0,0,1-1.12.57A5.44,5.44,0,0,1,134.69,34.34Z"/><path class="cls-1" d="M139.73,34.2v-.61h.18a3.44,3.44,0,0,0,.46,0,.87.87,0,0,0,.37-.14.83.83,0,0,0,.26-.32,1.32,1.32,0,0,0,.09-.54v-7A1.38,1.38,0,0,0,141,25a.73.73,0,0,0-.26-.31,1,1,0,0,0-.37-.15,3.44,3.44,0,0,0-.46,0h-.18v-.6h4.18v.6h-.19a3.44,3.44,0,0,0-.46,0,1,1,0,0,0-.37.15.65.65,0,0,0-.25.31,1.21,1.21,0,0,0-.1.54v7a1.16,1.16,0,0,0,.1.54.73.73,0,0,0,.25.32.87.87,0,0,0,.37.14,3.44,3.44,0,0,0,.46,0h.19v.61Z"/><path class="cls-1" d="M149.79,32.56a1.32,1.32,0,0,0,.09.54.83.83,0,0,0,.26.32.87.87,0,0,0,.37.14,3.44,3.44,0,0,0,.46,0h.33v.61h-4.47v-.61h.33a3.19,3.19,0,0,0,.45,0,1,1,0,0,0,.38-.13.66.66,0,0,0,.25-.29,1.22,1.22,0,0,0,.1-.51v-8H147a1.19,1.19,0,0,0-.53.1.9.9,0,0,0-.35.25,1.07,1.07,0,0,0-.2.38,2.11,2.11,0,0,0-.1.45l-.08.62H145l.07-2.51h8.09l.07,2.51h-.74l-.07-.62a2.11,2.11,0,0,0-.1-.45,1.25,1.25,0,0,0-.2-.38.9.9,0,0,0-.35-.25,1.27,1.27,0,0,0-.54-.1h-1.4Z"/><path class="cls-1" d="M156,34.2v-.61h.33a3.29,3.29,0,0,0,.45,0,.86.86,0,0,0,.37-.13.62.62,0,0,0,.26-.29,1.22,1.22,0,0,0,.1-.51V29.92l-2.67-4.62a2.67,2.67,0,0,0-.22-.35,1.28,1.28,0,0,0-.22-.24.79.79,0,0,0-.26-.13,1,1,0,0,0-.32,0h-.18v-.6h4v.6h-.53a1.33,1.33,0,0,0-.32,0,.62.62,0,0,0-.2.1.38.38,0,0,0-.09.15.52.52,0,0,0,0,.18,1,1,0,0,0,.09.4c.06.14.12.26.17.36l1.06,1.92a6.46,6.46,0,0,1,.43.88c.12.29.22.54.3.77,0-.11.09-.22.15-.35l.22-.4c.07-.14.15-.29.24-.44s.17-.31.25-.46l.92-1.65a2.21,2.21,0,0,0,.2-.46,1.55,1.55,0,0,0,.06-.4.51.51,0,0,0-.23-.47,1,1,0,0,0-.63-.16h-.42v-.6h3.5v.6h-.16a1,1,0,0,0-.3.05,1.06,1.06,0,0,0-.27.18,2.16,2.16,0,0,0-.29.35,5.24,5.24,0,0,0-.34.54L159,29.92v2.64a1.32,1.32,0,0,0,.09.54.73.73,0,0,0,.25.32.91.91,0,0,0,.38.14,3.19,3.19,0,0,0,.45,0h.34v.61Z"/><path class="cls-1" d="M176.7,29.05a7.32,7.32,0,0,1-.3,2.16,4.55,4.55,0,0,1-.87,1.68A3.79,3.79,0,0,1,174.11,34a4.68,4.68,0,0,1-1.93.38,4.91,4.91,0,0,1-2-.38,3.68,3.68,0,0,1-1.41-1.07,4.58,4.58,0,0,1-.84-1.68,8.55,8.55,0,0,1,0-4.34,4.49,4.49,0,0,1,.84-1.66,3.69,3.69,0,0,1,1.42-1.06,4.92,4.92,0,0,1,2-.38,4.67,4.67,0,0,1,1.92.38,3.83,3.83,0,0,1,1.41,1.07,4.46,4.46,0,0,1,.87,1.66A7.34,7.34,0,0,1,176.7,29.05Zm-7.45,0a10,10,0,0,0,.16,1.91,4,4,0,0,0,.51,1.42,2.37,2.37,0,0,0,.9.88,2.87,2.87,0,0,0,1.36.31,2.82,2.82,0,0,0,1.36-.31,2.4,2.4,0,0,0,.91-.88A4.24,4.24,0,0,0,175,31a11,11,0,0,0,.15-1.91,10.85,10.85,0,0,0-.15-1.9,4.24,4.24,0,0,0-.5-1.42,2.35,2.35,0,0,0-.9-.87,3.12,3.12,0,0,0-2.71,0,2.4,2.4,0,0,0-.92.87,4,4,0,0,0-.51,1.42A9.91,9.91,0,0,0,169.25,29.05Z"/><path class="cls-1" d="M181.1,24.65v4.16h3.46v.7H181.1v3.05a1.32,1.32,0,0,0,.09.54.81.81,0,0,0,.25.32.91.91,0,0,0,.38.14,3.33,3.33,0,0,0,.46,0h.47v.61h-4.47v-.61h.18a3.44,3.44,0,0,0,.46,0,.91.91,0,0,0,.37-.13.67.67,0,0,0,.26-.29,1.23,1.23,0,0,0,.09-.51V25.51a1.15,1.15,0,0,0-.09-.5.77.77,0,0,0-.26-.3.92.92,0,0,0-.37-.14,3.44,3.44,0,0,0-.46,0h-.18v-.6h7.25l.07,2.51h-.75l-.07-.62a2.21,2.21,0,0,0-.11-.46,1.18,1.18,0,0,0-.24-.37,1.09,1.09,0,0,0-.4-.25,1.44,1.44,0,0,0-.58-.1Z"/><path class="cls-1" d="M78.19,54.86V54h.56a2.19,2.19,0,0,0,1-.22c.29-.15.44-.51.44-1.08V41.8H78.39a1.43,1.43,0,0,0-1.21.45,2.32,2.32,0,0,0-.41,1.11l-.12,1H75.54l.1-3.56H87.11l.1,3.56H86.1l-.12-1a2.32,2.32,0,0,0-.41-1.11,1.46,1.46,0,0,0-1.23-.45H82.52V52.59c0,.61.14,1,.43,1.15A2,2,0,0,0,84,54h.55v.89Z"/><path class="cls-1" d="M88.25,54.86V54h.42a2.1,2.1,0,0,0,1-.23c.28-.16.42-.54.42-1.15V42.94c0-.56-.14-.92-.43-1.07a2.23,2.23,0,0,0-1-.23h-.42v-.89h6v.89h-.41a2.09,2.09,0,0,0-1,.24c-.29.16-.43.54-.43,1.14v4h6.08V43q0-.9-.42-1.14a2.1,2.1,0,0,0-1-.24h-.41v-.89h6v.89h-.41a2.09,2.09,0,0,0-1,.24c-.29.16-.43.54-.43,1.14v9.67c0,.57.15.92.44,1.07a2.38,2.38,0,0,0,1,.21h.41v.89h-6V54h.41a2.1,2.1,0,0,0,1-.23c.28-.16.42-.54.42-1.15V48H92.43v4.57c0,.61.14,1,.43,1.15a2.09,2.09,0,0,0,1,.23h.41v.89Z"/><path class="cls-1" d="M104.09,54.86V54h.41a2.34,2.34,0,0,0,1-.21c.29-.15.44-.5.44-1.07V43c0-.6-.15-1-.43-1.14a2.08,2.08,0,0,0-1-.24h-.41v-.89h10.24l.1,3.5H113.3l-.1-.87a2.27,2.27,0,0,0-.43-1.13,1.41,1.41,0,0,0-1.17-.45h-3.32V47H113v1h-4.74v5.82h3.85a1.5,1.5,0,0,0,1.22-.47,2.15,2.15,0,0,0,.48-1.11l.14-.87h1.13L115,54.86Z"/><path class="cls-1" d="M123.34,55.06a6.41,6.41,0,0,1-3.55-.91,5.41,5.41,0,0,1-2.1-2.55,9.81,9.81,0,0,1-.69-3.83,9.51,9.51,0,0,1,.7-3.82,5.51,5.51,0,0,1,2.11-2.52,6.52,6.52,0,0,1,3.55-.9,6.24,6.24,0,0,1,3.43.9A5.77,5.77,0,0,1,129,44a10.26,10.26,0,0,1,0,7.65,5.8,5.8,0,0,1-2.16,2.54A6.2,6.2,0,0,1,123.34,55.06Zm0-1.12a3.1,3.1,0,0,0,3-1.63,9.82,9.82,0,0,0,.86-4.52,9.76,9.76,0,0,0-.86-4.52,3.09,3.09,0,0,0-3-1.61,3.13,3.13,0,0,0-3,1.61,9.36,9.36,0,0,0-.89,4.52,9.54,9.54,0,0,0,.88,4.52A3.1,3.1,0,0,0,123.34,53.94Z"/><path class="cls-1" d="M131.5,54.86V54h.42a2.1,2.1,0,0,0,1-.23c.28-.16.42-.54.42-1.15V43q0-.9-.42-1.14a2.1,2.1,0,0,0-1-.24h-.42v-.89h6.05v.89h-.41a2.18,2.18,0,0,0-1,.23c-.29.15-.43.51-.43,1.07V53.82h3.83a1.39,1.39,0,0,0,1.22-.55,2.85,2.85,0,0,0,.48-1.21l.24-1.48h1l-.13,4.28Z"/><path class="cls-1" d="M150.78,55.06a6.39,6.39,0,0,1-3.55-.91,5.49,5.49,0,0,1-2.11-2.55,9.81,9.81,0,0,1-.69-3.83,9.68,9.68,0,0,1,.7-3.82,5.53,5.53,0,0,1,2.12-2.52,6.47,6.47,0,0,1,3.55-.9,6.28,6.28,0,0,1,3.43.9A5.69,5.69,0,0,1,156.38,44a10.26,10.26,0,0,1,0,7.65,5.71,5.71,0,0,1-2.15,2.54A6.23,6.23,0,0,1,150.78,55.06Zm0-1.12a3.08,3.08,0,0,0,3-1.63,9.69,9.69,0,0,0,.86-4.52,9.63,9.63,0,0,0-.86-4.52,3.07,3.07,0,0,0-2.95-1.61,3.15,3.15,0,0,0-3,1.61,9.48,9.48,0,0,0-.89,4.52,9.67,9.67,0,0,0,.88,4.52A3.12,3.12,0,0,0,150.78,53.94Z"/><path class="cls-1" d="M166.29,55.06a7.49,7.49,0,0,1-3.87-.91,5.56,5.56,0,0,1-2.3-2.54,8.89,8.89,0,0,1-.76-3.82,8.37,8.37,0,0,1,.8-3.77,5.84,5.84,0,0,1,2.37-2.55,7.6,7.6,0,0,1,3.88-.92,7,7,0,0,1,3.4.65,1.84,1.84,0,0,1,1.13,1.59,1.25,1.25,0,0,1-.56,1.05,2.49,2.49,0,0,1-1.48.41,3.14,3.14,0,0,0-.25-1.25,2.23,2.23,0,0,0-.82-1,2.69,2.69,0,0,0-1.5-.38,3.78,3.78,0,0,0-3.44,1.6,8.44,8.44,0,0,0-1,4.53,8,8,0,0,0,1.07,4.5,4.11,4.11,0,0,0,3.67,1.59c.33,0,.66,0,1-.05a5.41,5.41,0,0,0,.89-.17V50.55a1.16,1.16,0,0,0-.45-1.1,2.17,2.17,0,0,0-1.11-.26h-.12V48.3h5.43v.89h-.13a1.52,1.52,0,0,0-.94.27c-.25.18-.37.57-.37,1.17v3.48a10.69,10.69,0,0,1-2.13.72A11.79,11.79,0,0,1,166.29,55.06Z"/><path class="cls-1" d="M175.45,54.86V54H176a2.4,2.4,0,0,0,1.05-.2c.29-.14.43-.5.43-1.08V49.21l-3.65-6.52a3.22,3.22,0,0,0-.6-.8,1.14,1.14,0,0,0-.81-.25h-.25v-.89H178v.89h-.63a1,1,0,0,0-.76.21.69.69,0,0,0-.19.5,1.45,1.45,0,0,0,.11.55,3.93,3.93,0,0,0,.22.5l1.46,2.73a12.64,12.64,0,0,1,.58,1.17q.24.57.39,1c.12-.3.29-.65.5-1.06l.65-1.23,1.23-2.31a2.76,2.76,0,0,0,.27-.67,2.28,2.28,0,0,0,.08-.52c0-.59-.41-.89-1.22-.89h-.54v-.89h4.92v.89h-.27A1.09,1.09,0,0,0,184,42a5.14,5.14,0,0,0-.83,1.22l-3.34,6v3.38c0,.61.14,1,.43,1.14a2.26,2.26,0,0,0,1,.22h.59v.89Z"/><path class="cls-2" d="M32.63,78.22c-1.24-.38-13.36-6.6-22.54-12.92A23.5,23.5,0,0,1,0,45.94V5.32l12.09-2.9a88.17,88.17,0,0,1,41,0L65.26,5.32V46A23.66,23.66,0,0,1,55,65.43C46.1,71.61,34.43,77.67,32.73,78.19Z"/><polygon class="cls-3" points="37.73 64.36 34.86 62.7 36.66 59.92 33.57 61.12 32.53 57.98 31.54 61.15 28.43 60 30.3 62.75 27.46 64.47 30.77 64.72 30.35 68.01 32.61 65.58 34.91 67.96 34.43 64.68 37.73 64.36"/><polygon class="cls-4" points="37.73 13.74 34.86 12.08 36.66 9.3 33.57 10.51 32.53 7.36 31.54 10.53 28.43 9.39 30.3 12.13 27.46 13.85 30.77 14.1 30.35 17.39 32.61 14.96 34.91 17.34 34.43 14.06 37.73 13.74"/><polygon class="cls-4" points="56.48 19.49 53.62 17.83 55.42 15.05 52.33 16.25 51.28 13.11 50.3 16.28 47.19 15.13 49.05 17.88 46.22 19.6 49.53 19.85 49.11 23.14 51.37 20.71 53.67 23.09 53.18 19.81 56.48 19.49"/><polygon class="cls-4" points="18.97 19.49 16.1 17.83 17.9 15.05 14.82 16.25 13.77 13.11 12.79 16.28 9.67 15.13 11.54 17.88 8.7 19.6 12.01 19.85 11.59 23.14 13.85 20.71 16.16 23.09 15.67 19.81 18.97 19.49"/><path class="cls-5" d="M47.88,27.08H50V53.19H34.48a2.1,2.1,0,0,1-2,.8,2.1,2.1,0,0,1-2-.8H14.92V27.08h2.16"/><path class="cls-2" d="M32.7,54.72h-.22a3,3,0,0,1-2.34-.81H14.2V26.36h2.88V27.8H15.64V52.47H30.89l.21.35a1.41,1.41,0,0,0,1.33.45h.1a1.39,1.39,0,0,0,1.34-.47l.22-.31.39,0H49.31V27.8H47.88V26.36h2.88V53.91H34.82A2.92,2.92,0,0,1,32.7,54.72Z"/><path class="cls-5" d="M32.59,51.42a17.5,17.5,0,0,0-4.69-.6c-1.54.2-6.24.9-7.86.6a24.23,24.23,0,0,1-2.85-.71l.08-25.06a6.2,6.2,0,0,0,2.85.71c1.64,0,6-.79,7.5-1s4.95,1.34,4.95,1.34h0s3.5-1.54,5-1.34,5.86,1,7.51,1a6.41,6.41,0,0,0,2.85-.71L48,50.71a23.59,23.59,0,0,1-2.85.71c-1.61.3-6.31-.4-7.85-.6A17.59,17.59,0,0,0,32.59,51.42Z"/><path class="cls-2" d="M21.12,52.21a6.91,6.91,0,0,1-1.21-.08A25.3,25.3,0,0,1,17,51.4l-.5-.16.08-26.85,1.09.64a5.52,5.52,0,0,0,2.48.6h0a51.37,51.37,0,0,0,5.49-.69l1.9-.29c1.45-.19,4.07.85,5,1.26,1-.4,3.65-1.45,5.11-1.26l1.9.29a51.06,51.06,0,0,0,5.49.69h0A5.57,5.57,0,0,0,47.56,25l1.08-.61.08,26.83-.5.16a25.3,25.3,0,0,1-2.94.73c-1.55.29-5.4-.23-7.46-.52l-.62-.08a16.78,16.78,0,0,0-4.43.59l-.18,0-.17,0A16.84,16.84,0,0,0,28,51.53l-.62.08A53,53,0,0,1,21.12,52.21Zm-3.2-2c.49.14,1.31.35,2.26.53,1.32.25,5.29-.29,7-.53l.63-.08a16.59,16.59,0,0,1,4.79.58,16.69,16.69,0,0,1,4.79-.58l.63.08c1.7.24,5.68.78,7,.53,1-.18,1.77-.39,2.26-.53L47.2,26.73a7.33,7.33,0,0,1-2.13.35h0a51.23,51.23,0,0,1-5.72-.71l-1.86-.29c-1-.12-3.38.72-4.66,1.29L32.65,27l-.08.41L32.45,27l-.18.4C31,26.8,28.69,26,27.72,26.08l-1.86.29a51.79,51.79,0,0,1-5.74.71A7.21,7.21,0,0,1,18,26.73Z"/><rect class="cls-2" x="31.8" y="26.58" width="1.44" height="25.06"/></g></svg>