<?xml version="1.0" encoding="UTF-8" standalone="no"?>
<!-- Created with Inkscape (http://www.inkscape.org/) -->

<svg
   xmlns:dc="http://purl.org/dc/elements/1.1/"
   xmlns:cc="http://creativecommons.org/ns#"
   xmlns:rdf="http://www.w3.org/1999/02/22-rdf-syntax-ns#"
   xmlns:svg="http://www.w3.org/2000/svg"
   xmlns="http://www.w3.org/2000/svg"
   version="1.1"
   width="892.91339"
   height="385.86612"
   id="svg6742">
  <defs
     id="defs6744" />
  <metadata
     id="metadata6747">
    <rdf:RDF>
      <cc:Work
         rdf:about="">
        <dc:format>image/svg+xml</dc:format>
        <dc:type
           rdf:resource="http://purl.org/dc/dcmitype/StillImage" />
        <dc:title></dc:title>
      </cc:Work>
    </rdf:RDF>
  </metadata>
  <g
     transform="translate(30.049767,-316.84358)"
     id="layer1">
    <g
       transform="matrix(5.2518025,0,0,5.2518025,-1504.2523,-635.51791)"
       id="g6887">
      <g
         transform="matrix(1.25,0,0,-1.25,323.77791,207.93041)"
         id="g6395">
        <path
           d="m 0,0 c 0,1.799 -0.033,2.127 -2.176,2.436 l 0,0.247 5.629,0 0,-0.247 C 1.49,2.176 1.439,1.685 1.439,0 l 0,-5.856 C 1.456,-9.031 1.08,-9.734 -2.47,-11.254 l -0.131,0.278 C -0.197,-9.848 0,-8.082 0,-5.138 L 0,0 z"
           id="path6397"
           style="fill:#000000;fill-opacity:1;fill-rule:nonzero;stroke:none" />
      </g>
      <g
         transform="matrix(1.25,0,0,-1.25,331.51566,212.65378)"
         id="g6399">
        <path
           d="m 0,0 c -0.278,-0.819 -1,-2.521 -1,-3.305 0,-0.998 1.129,-0.998 1.866,-1.113 l 0,-0.245 -4.482,0 0,0.245 c 1.457,0.393 1.603,0.72 2.11,1.997 l 1.848,4.826 0.983,2.666 c 0.146,0.426 0.359,0.818 0.179,1.128 0.442,0.181 0.85,0.474 1.194,0.883 l 3.599,-9.585 c 0.441,-1.195 0.721,-1.669 2.029,-1.915 l 0,-0.245 -4.809,0 0,0.245 c 0.572,0.131 1.26,0.312 1.26,1.047 0,0.688 -0.623,2.226 -1.048,3.371 L 0,0 z m 1.815,5.006 -1.538,-4.253 3.24,0 -1.702,4.253 z"
           id="path6401"
           style="fill:#000000;fill-opacity:1;fill-rule:nonzero;stroke:none" />
      </g>
      <g
         transform="matrix(1.25,0,0,-1.25,351.81892,215.49666)"
         id="g6403">
        <path
           d="m 0,0 2.961,6.511 c 0.41,0.898 0.638,1.718 0.278,1.963 l 0.034,0.262 3.596,0 0,-0.246 C 5.824,8.278 5.186,7.885 5.251,6.74 l 0.36,-5.955 c 0.18,-2.273 0.18,-2.634 1.929,-2.929 l 0,-0.244 -5.38,0 0,0.244 c 1.26,0.197 2.06,0.344 1.979,1.784 l -0.442,7.148 -0.032,0 -4.171,-9.176 -0.179,0 -3.878,8.8 -0.032,0 C -4.858,3.91 -4.988,2.094 -5.103,-0.44 -5.135,-1.079 -5.119,-1.816 -3.14,-2.144 l 0,-0.244 -4.562,0 0,0.244 c 1.455,0.246 1.601,0.95 1.831,2.274 l 0.605,4.597 0.213,2.225 c 0.099,1.081 -0.835,1.457 -1.799,1.538 l 0,0.246 3.533,0 0.016,-0.18 C -3.664,8.18 -3.223,7.198 -3.107,6.936 L 0,0 z"
           id="path6405"
           style="fill:#000000;fill-opacity:1;fill-rule:nonzero;stroke:none" />
      </g>
      <g
         transform="matrix(1.25,0,0,-1.25,362.08742,218.17641)"
         id="g6407">
        <path
           d="m 0,0 c 1.964,0.263 1.979,0.754 2.026,2.438 l 0,5.759 C 1.979,9.882 1.964,10.373 0,10.633 l 0,0.246 8.784,0 -0.197,-2.518 -0.244,0 C 8.227,10.47 6.705,10.488 5.055,10.488 l -1.587,0 0,-4.663 1.7,0 c 1.227,0 2.16,0.098 2.339,1.504 l 0.246,0 0,-3.647 -0.246,0 C 7.294,5.12 6.395,5.139 5.168,5.139 l -1.7,0 0,-2.684 c 0,-0.964 -0.23,-2.306 2.453,-2.306 2.062,0 3.075,0.783 3.484,2.846 l 0.244,0 C 9.634,1.752 9.422,0.737 9.095,-0.245 L 0,-0.245 0,0 z"
           id="path6409"
           style="fill:#000000;fill-opacity:1;fill-rule:nonzero;stroke:none" />
      </g>
      <g
         transform="matrix(1.25,0,0,-1.25,383.51691,208.17591)"
         id="g6411">
        <path
           d="m 0,0 -0.261,0 c -0.262,1.325 -0.687,2.601 -2.306,2.601 -1.049,0 -1.915,-0.719 -1.915,-1.8 0,-2.829 5.153,-2.731 5.153,-6.036 0,-2.109 -2.095,-3.207 -3.974,-3.207 -1.001,0 -2.047,0.295 -2.879,0.835 l -0.476,2.781 0.293,0 c 0.409,-1.571 1.506,-3.125 3.306,-3.125 1.209,0 2.16,0.719 2.16,1.996 0,2.912 -5.005,2.65 -5.005,5.922 0,1.915 1.897,3.124 3.646,3.124 0.834,0 1.669,-0.244 2.39,-0.637 L 0,0 z"
           id="path6413"
           style="fill:#000000;fill-opacity:1;fill-rule:nonzero;stroke:none" />
      </g>
      <g
         transform="matrix(1.25,0,0,-1.25,401.61741,208.78941)"
         id="g6415">
        <path
           d="m 0,0 -0.246,0 c -0.311,1.849 -1.391,3.173 -3.353,3.173 -2.995,0 -4.681,-2.452 -4.681,-5.267 0,-3.224 2.47,-5.463 4.845,-5.463 2.14,0 2.991,1.57 3.728,3.336 l 0.231,-0.098 c -0.199,-0.999 -0.508,-1.98 -0.901,-2.928 -1.047,-0.507 -2.176,-0.704 -3.339,-0.704 -3.419,0 -6.461,1.964 -6.461,5.661 0,2.912 2.274,5.857 6.593,5.857 C -2.34,3.567 -1.081,3.32 0,2.683 L 0,0 z"
           id="path6417"
           style="fill:#000000;fill-opacity:1;fill-rule:nonzero;stroke:none" />
      </g>
      <g
         transform="matrix(1.25,0,0,-1.25,418.30541,211.53028)"
         id="g6419">
        <path
           d="m 0,0 c 0,-3.517 -2.552,-5.757 -5.988,-5.757 -3.45,0 -5.988,2.24 -5.988,5.773 0,3.486 2.554,5.744 5.973,5.744 C -1.815,5.76 0,2.912 0,0 m -10.077,0.41 c 0,-2.536 1.341,-5.775 4.286,-5.775 2.698,0 3.895,2.749 3.895,5.087 -0.051,2.897 -1.736,5.644 -4.239,5.644 -2.814,0 -3.942,-2.747 -3.942,-4.956"
           id="path6421"
           style="fill:#000000;fill-opacity:1;fill-rule:nonzero;stroke:none" />
      </g>
      <g
         transform="matrix(1.25,0,0,-1.25,434.72792,211.53028)"
         id="g6423">
        <path
           d="m 0,0 c 0,-3.517 -2.551,-5.757 -5.987,-5.757 -3.452,0 -5.988,2.24 -5.988,5.773 0,3.486 2.553,5.744 5.973,5.744 C -1.815,5.76 0,2.912 0,0 m -10.077,0.41 c 0,-2.536 1.342,-5.775 4.286,-5.775 2.701,0 3.895,2.749 3.895,5.087 -0.05,2.897 -1.735,5.644 -4.239,5.644 -2.811,0 -3.942,-2.747 -3.942,-4.956"
           id="path6425"
           style="fill:#000000;fill-opacity:1;fill-rule:nonzero;stroke:none" />
      </g>
      <g
         transform="matrix(1.25,0,0,-1.25,439.43854,215.12878)"
         id="g6427">
        <path
           d="m 0,0 c 0.049,-1.685 0.065,-2.176 2.176,-2.438 l 0,-0.245 -5.646,0 0,0.245 c 1.965,0.262 1.981,0.753 2.029,2.438 l 0,5.759 C -1.489,7.444 -1.505,7.935 -3.47,8.195 l 0,0.247 5.203,0 0,-0.247 C 0.065,7.935 0.049,7.444 0,5.759 L 0,0 z m 7.394,8.442 0,-0.247 C 5.529,7.999 4.286,6.412 3.075,5.153 L 1.537,3.517 4.859,-0.147 c 0.998,-1.096 2.176,-2.077 3.63,-2.486 L 8.408,-2.879 C 5.562,-2.65 5.104,-2.568 3.565,-0.883 L 0.228,2.749 2.862,5.611 c 1.718,1.93 1.39,2.47 0.293,2.584 l 0,0.247 4.239,0 z"
           id="path6429"
           style="fill:#000000;fill-opacity:1;fill-rule:nonzero;stroke:none" />
      </g>
      <g
         transform="matrix(1.25,0,0,-1.25,337.02891,223.76928)"
         id="g6431">
        <path
           d="m 0,0 0,-0.245 c -1.489,-0.163 -1.587,-1.081 -1.651,-3.239 l -0.1,-3.582 c -0.048,-2.113 -0.948,-4.254 -4.58,-4.254 -5.07,0 -4.547,3.665 -4.547,4.972 l 0,3.665 c -0.05,1.686 -0.066,2.175 -2.03,2.438 l 0,0.245 5.645,0 0,-0.245 c -2.144,-0.311 -2.176,-0.638 -2.176,-2.438 l 0,-3.353 c 0,-0.312 -0.524,-4.533 3.958,-4.533 3.534,0 3.191,3.37 3.191,5.367 l 0,1.718 c 0,2.077 -0.163,3.025 -2.453,3.239 L -4.743,0 0,0 z"
           id="path6433"
           style="fill:#000000;fill-opacity:1;fill-rule:nonzero;stroke:none" />
      </g>
      <g
         transform="matrix(1.25,0,0,-1.25,351.25779,234.46403)"
         id="g6435">
        <path
           d="m 0,0 -0.082,5.971 c -0.017,1.555 -0.441,2.013 -2.289,2.34 l 0,0.245 4.463,0 0,-0.245 C 0.964,8.163 0.752,7.541 0.622,6.478 0.392,4.68 0.474,0.736 0.555,-2.83 L 0.344,-2.88 C -2.274,0.211 -5.185,3.076 -7.95,6.054 l 0,-3.012 c 0,-4.056 -0.098,-4.89 2.274,-5.364 l 0,-0.248 -4.89,0 0,0.248 c 2.208,0.227 2.125,1.734 2.125,5.445 l 0,2.455 c 0,1.636 -0.261,2.275 -2.339,2.733 l 0,0.245 2.699,0 L 0,0 z"
           id="path6437"
           style="fill:#000000;fill-opacity:1;fill-rule:nonzero;stroke:none" />
      </g>
      <g
         transform="matrix(1.25,0,0,-1.25,359.08079,234.32241)"
         id="g6439">
        <path
           d="m 0,0 c 0.049,-1.684 0.067,-2.175 2.029,-2.437 l 0,-0.246 -5.496,0 0,0.246 c 1.962,0.262 1.98,0.753 2.028,2.437 l 0,5.759 c -0.048,1.687 -0.066,2.176 -2.028,2.439 l 0,0.244 5.496,0 0,-0.244 C 0.067,7.935 0.049,7.446 0,5.759 L 0,0 z"
           id="path6441"
           style="fill:#000000;fill-opacity:1;fill-rule:nonzero;stroke:none" />
      </g>
      <g
         transform="matrix(1.25,0,0,-1.25,377.42354,223.76928)"
         id="g6443">
        <path
           d="M 0,0 0,-0.245 C -1.538,-0.377 -2.012,-1.668 -3.026,-4.04 l -3.126,-7.46 -0.228,0 -3.696,8.849 c -0.492,1.196 -0.868,2.243 -2.324,2.406 l 0,0.245 5.186,0 0,-0.245 c -2.307,-0.229 -1.555,-1.538 -1.13,-2.569 l 2.617,-6.315 1.932,4.63 c 1.405,3.355 1.667,3.894 -0.818,4.254 L -4.613,0 0,0 z"
           id="path6445"
           style="fill:#000000;fill-opacity:1;fill-rule:nonzero;stroke:none" />
      </g>
      <g
         transform="matrix(1.25,0,0,-1.25,377.60742,237.36703)"
         id="g6447">
        <path
           d="m 0,0 c 1.965,0.26 1.981,0.752 2.029,2.436 l 0,5.759 C 1.981,9.881 1.965,10.371 0,10.634 l 0,0.244 8.786,0 -0.196,-2.519 -0.246,0 C 8.229,10.47 6.707,10.486 5.055,10.486 l -1.585,0 0,-4.663 1.701,0 c 1.225,0 2.159,0.098 2.338,1.505 l 0.247,0 0,-3.648 -0.247,0 C 7.297,5.119 6.396,5.135 5.171,5.135 l -1.701,0 0,-2.683 c 0,-0.964 -0.23,-2.305 2.454,-2.305 2.059,0 3.075,0.785 3.483,2.846 l 0.246,0 C 9.637,1.749 9.424,0.735 9.097,-0.247 L 0,-0.247 0,0 z"
           id="path6449"
           style="fill:#000000;fill-opacity:1;fill-rule:nonzero;stroke:none" />
      </g>
      <g
         transform="matrix(1.25,0,0,-1.25,393.00292,227.98091)"
         id="g6451">
        <path
           d="m 0,0 c 0,2.503 -0.082,2.878 -1.914,3.043 l 0,0.228 3.992,0.131 C 6.2,3.533 6.527,1.521 6.527,0.735 6.527,-0.639 5.677,-1.424 4.5,-1.949 l 0.081,-0.114 c 1.26,-2.207 2.829,-5.021 5.53,-5.579 l -0.05,-0.243 c -1.735,0.081 -3.01,0.031 -3.959,1.013 -1.08,1.129 -1.93,2.568 -2.273,3.273 -0.655,1.357 -1.244,0.963 -2.389,1.161 l 0,-2.635 c 0,-1.799 0.031,-2.126 2.273,-2.436 l 0,-0.247 -5.741,0 0,0.247 c 1.962,0.26 1.978,0.752 2.028,2.436 L 0,0 z m 1.44,-2.161 c 1.57,0.016 3.403,0.737 3.403,2.552 0,1.916 -1.686,2.684 -3.403,2.668 l 0,-5.22 z"
           id="path6453"
           style="fill:#000000;fill-opacity:1;fill-rule:nonzero;stroke:none" />
      </g>
      <g
         transform="matrix(1.25,0,0,-1.25,413.37942,227.36866)"
         id="g6455">
        <path
           d="m 0,0 -0.261,0 c -0.262,1.326 -0.688,2.602 -2.307,2.602 -1.047,0 -1.913,-0.719 -1.913,-1.8 0,-2.83 5.152,-2.732 5.152,-6.038 0,-2.108 -2.094,-3.204 -3.975,-3.204 -0.998,0 -2.046,0.293 -2.881,0.834 l -0.472,2.779 0.293,0 c 0.41,-1.57 1.505,-3.124 3.306,-3.124 1.21,0 2.157,0.719 2.157,1.995 0,2.912 -5.004,2.651 -5.004,5.924 0,1.915 1.897,3.123 3.646,3.123 0.836,0 1.67,-0.244 2.391,-0.637 L 0,0 z"
           id="path6457"
           style="fill:#000000;fill-opacity:1;fill-rule:nonzero;stroke:none" />
      </g>
      <g
         transform="matrix(1.25,0,0,-1.25,419.35916,234.32241)"
         id="g6459">
        <path
           d="m 0,0 c 0.049,-1.684 0.066,-2.175 2.029,-2.437 l 0,-0.246 -5.499,0 0,0.246 c 1.966,0.262 1.981,0.753 2.032,2.437 l 0,5.759 C -1.489,7.446 -1.504,7.935 -3.47,8.198 l 0,0.244 5.499,0 0,-0.244 C 0.066,7.935 0.049,7.446 0,5.759 L 0,0 z"
           id="path6461"
           style="fill:#000000;fill-opacity:1;fill-rule:nonzero;stroke:none" />
      </g>
      <g
         transform="matrix(1.25,0,0,-1.25,435.39904,223.13603)"
         id="g6463">
        <path
           d="m 0,0 0.129,0 0.23,-3.06 -0.23,-0.048 c -0.572,2.03 -1.47,2.11 -3.351,2.11 l -0.984,0 0,-7.558 c 0,-2.027 0.099,-2.568 2.292,-2.829 l 0,-0.248 -6.02,0 0,0.248 c 2.191,0.261 2.289,0.802 2.289,2.829 l 0,7.558 -0.98,0 c -1.883,0 -2.783,-0.08 -3.356,-2.11 l -0.227,0.048 0.227,3.06 0.132,0 0.164,-0.147 c 0.409,-0.376 0.475,-0.36 1.014,-0.36 l 7.494,0 c 0.539,0 0.604,-0.016 1.013,0.36 L 0,0 z"
           id="path6465"
           style="fill:#000000;fill-opacity:1;fill-rule:nonzero;stroke:none" />
      </g>
      <g
         transform="matrix(1.25,0,0,-1.25,449.34941,223.76928)"
         id="g6467">
        <path
           d="M 0,0 0,-0.245 C -1.424,-0.36 -2.126,-1.144 -2.814,-2.323 l -1.93,-3.827 0,-1.852 c 0.033,-1.879 0.065,-2.55 2.159,-2.876 l 0,-0.248 -5.759,0 0,0.248 c 2.095,0.326 2.128,0.997 2.159,2.876 l 0,1.311 -1.7,3.713 c -0.622,1.374 -1.064,2.536 -2.717,2.733 l 0,0.245 4.516,0 0,-0.245 c -1.342,-0.181 -1.162,-0.72 -0.637,-1.865 l 1.635,-3.534 1.423,2.7 c 1.014,1.897 0.883,2.518 -0.538,2.699 L -4.203,0 0,0 z"
           id="path6469"
           style="fill:#000000;fill-opacity:1;fill-rule:nonzero;stroke:none" />
      </g>
      <path
         d="m 323.34379,241.71053 124.71125,0 0,0.4175 -124.71125,0 0,-0.4175 z"
         id="path6471"
         style="fill:#000000;fill-opacity:1;fill-rule:nonzero;stroke:none" />
      <g
         transform="matrix(1.25,0,0,-1.25,325.45266,246.36278)"
         id="g6473">
        <path
           d="m 0,0 0.989,0 2.675,-6.125 -1.128,0 -0.616,1.469 -2.877,0 -0.624,-1.469 -1.095,0 L 0,0 z m 1.527,-3.71 -1.05,2.432 -1.042,-2.432 2.092,0 z"
           id="path6475"
           style="fill:#000000;fill-opacity:1;fill-rule:nonzero;stroke:none" />
      </g>
      <g
         transform="matrix(1.25,0,0,-1.25,331.16466,250.79203)"
         id="g6477">
        <path
           d="m 0,0 0,3.5 1.069,0 0,-3.458 c 0,-1.129 0.581,-1.737 1.536,-1.737 0.948,0 1.53,0.573 1.53,1.695 l 0,3.5 1.067,0 0,-3.448 C 5.202,-1.766 4.177,-2.677 2.588,-2.677 1.008,-2.677 0,-1.766 0,0"
           id="path6479"
           style="fill:#000000;fill-opacity:1;fill-rule:nonzero;stroke:none" />
      </g>
      <g
         transform="matrix(1.25,0,0,-1.25,339.21017,252.9114)"
         id="g6481">
        <path
           d="m 0,0 0.644,0.764 c 0.581,-0.501 1.164,-0.789 1.919,-0.789 0.66,0 1.076,0.304 1.076,0.765 l 0,0.017 C 3.639,1.19 3.397,1.426 2.267,1.685 0.973,1.999 0.244,2.382 0.244,3.502 l 0,0.018 c 0,1.042 0.868,1.762 2.076,1.762 0.885,0 1.588,-0.269 2.206,-0.765 L 3.953,3.709 C 3.405,4.117 2.858,4.335 2.301,4.335 1.676,4.335 1.312,4.014 1.312,3.613 l 0,-0.014 C 1.312,3.128 1.589,2.919 2.753,2.641 4.04,2.328 4.708,1.868 4.708,0.861 l 0,-0.019 C 4.708,-0.296 3.812,-0.971 2.536,-0.971 1.607,-0.971 0.73,-0.65 0,0"
           id="path6483"
           style="fill:#000000;fill-opacity:1;fill-rule:nonzero;stroke:none" />
      </g>
      <g
         transform="matrix(1.25,0,0,-1.25,348.59279,247.65516)"
         id="g6485">
        <path
           d="m 0,0 -1.93,0 0,0.99 4.935,0 0,-0.99 -1.928,0 0,-5.091 L 0,-5.091 0,0 z"
           id="path6487"
           style="fill:#000000;fill-opacity:1;fill-rule:nonzero;stroke:none" />
      </g>
      <g
         transform="matrix(1.25,0,0,-1.25,353.97929,246.41753)"
         id="g6489">
        <path
           d="M 0,0 2.709,0 C 3.474,0 4.074,-0.227 4.464,-0.607 4.786,-0.94 4.968,-1.391 4.968,-1.919 l 0,-0.018 c 0,-0.998 -0.599,-1.599 -1.45,-1.843 l 1.642,-2.301 -1.26,0 -1.495,2.119 -1.339,0 0,-2.119 L 0,-6.081 0,0 z m 2.631,-3.016 c 0.765,0 1.251,0.403 1.251,1.019 l 0,0.017 c 0,0.652 -0.47,1.008 -1.259,1.008 l -1.557,0 0,-2.044 1.565,0 z"
           id="path6491"
           style="fill:#000000;fill-opacity:1;fill-rule:nonzero;stroke:none" />
      </g>
      <g
         transform="matrix(1.25,0,0,-1.25,364.73804,246.36278)"
         id="g6493">
        <path
           d="m 0,0 0.99,0 2.676,-6.125 -1.128,0 -0.618,1.469 -2.875,0 -0.625,-1.469 -1.095,0 L 0,0 z m 1.529,-3.71 -1.051,2.432 -1.042,-2.432 2.093,0 z"
           id="path6495"
           style="fill:#000000;fill-opacity:1;fill-rule:nonzero;stroke:none" />
      </g>
      <g
         transform="matrix(1.25,0,0,-1.25,370.84041,246.41753)"
         id="g6497">
        <path
           d="m 0,0 1.07,0 0,-5.107 3.196,0 0,-0.974 L 0,-6.081 0,0 z"
           id="path6499"
           style="fill:#000000;fill-opacity:1;fill-rule:nonzero;stroke:none" />
      </g>
      <path
         d="m 377.85629,246.41803 1.33625,0 0,7.60125 -1.33625,0 0,-7.60125 z"
         id="path6501"
         style="fill:#000000;fill-opacity:1;fill-rule:nonzero;stroke:none" />
      <g
         transform="matrix(1.25,0,0,-1.25,384.13267,246.36278)"
         id="g6503">
        <path
           d="m 0,0 0.99,0 2.675,-6.125 -1.127,0 -0.618,1.469 -2.876,0 -0.624,-1.469 -1.095,0 L 0,0 z m 1.528,-3.71 -1.05,2.432 -1.043,-2.432 2.093,0 z"
           id="path6505"
           style="fill:#000000;fill-opacity:1;fill-rule:nonzero;stroke:none" />
      </g>
      <g
         transform="matrix(1.25,0,0,-1.25,310.44504,216.22053)"
         id="g6507">
        <path
           d="m 0,0 c -0.814,-0.47 -1.977,-0.763 -3.27,-0.763 -1.294,0 -2.456,0.293 -3.27,0.762 -0.814,0.469 -1.979,0.762 -3.27,0.762 -1.292,0 -2.458,-0.293 -3.27,-0.762 -0.815,-0.469 -1.979,-0.762 -3.272,-0.762 -1.292,0 -2.455,0.293 -3.268,0.762 -0.815,0.469 -1.978,0.762 -3.272,0.762 -0.121,0 -0.241,-0.004 -0.361,-0.009 l 0,-3.027 c 0,-0.458 0.017,-0.899 0.043,-1.333 0.105,0.004 0.211,0.009 0.318,0.009 1.294,0 2.457,-0.293 3.272,-0.764 0.813,-0.468 1.976,-0.761 3.268,-0.761 1.293,0 2.457,0.293 3.272,0.761 0.812,0.471 1.978,0.764 3.27,0.764 1.291,0 2.456,-0.293 3.27,-0.764 0.814,-0.468 1.976,-0.761 3.27,-0.761 1.293,0 2.456,0.293 3.27,0.762 0.814,0.47 1.977,0.763 3.269,0.763 0.109,0 0.214,-0.005 0.32,-0.009 0.026,0.434 0.042,0.875 0.042,1.333 l 0,3.027 C 3.512,0.757 3.393,0.761 3.269,0.761 1.977,0.761 0.814,0.468 0,0"
           id="path6509"
           style="fill:#0072bc;fill-opacity:1;fill-rule:nonzero;stroke:none" />
      </g>
      <g
         transform="matrix(1.25,0,0,-1.25,306.35817,228.07728)"
         id="g6511">
        <path
           d="M 0,0 C -1.293,0 -2.457,0.293 -3.271,0.762 -4.085,1.231 -5.249,1.526 -6.54,1.526 -7.832,1.526 -8.998,1.231 -9.811,0.762 -10.626,0.293 -11.789,0 -13.082,0 c -1.292,-0.001 -2.456,0.293 -3.269,0.762 -0.724,0.418 -1.724,0.695 -2.843,0.75 0.572,-1.918 1.42,-3.529 2.421,-4.903 0.149,-0.066 0.29,-0.132 0.422,-0.209 0.813,-0.468 1.977,-0.763 3.269,-0.762 1.293,0 2.456,0.294 3.271,0.762 0.813,0.47 1.979,0.765 3.271,0.765 1.291,0 2.455,-0.293 3.269,-0.765 0.814,-0.468 1.978,-0.762 3.271,-0.762 1.292,0 2.455,0.294 3.27,0.762 0.131,0.078 0.274,0.144 0.422,0.21 1.001,1.373 1.846,2.984 2.42,4.902 C 4.992,1.457 3.992,1.18 3.27,0.762 2.455,0.293 1.292,0 0,0"
           id="path6513"
           style="fill:#0072bc;fill-opacity:1;fill-rule:nonzero;stroke:none" />
      </g>
      <g
         transform="matrix(1.25,0,0,-1.25,302.26954,238.0274)"
         id="g6515">
        <path
           d="M 0,0 C -0.814,0.468 -1.978,0.763 -3.269,0.763 -4.562,0.763 -5.727,0.468 -6.54,0 c -0.392,-0.227 -0.865,-0.409 -1.394,-0.541 1.875,-1.253 3.608,-2.175 4.665,-3.057 1.055,0.882 2.788,1.804 4.663,3.057 C 0.865,-0.409 0.392,-0.227 0,0"
           id="path6517"
           style="fill:#0072bc;fill-opacity:1;fill-rule:nonzero;stroke:none" />
      </g>
      <g
         transform="matrix(1.25,0,0,-1.25,310.44504,205.31741)"
         id="g6519">
        <path
           d="m 0,0 c -0.814,-0.469 -1.977,-0.765 -3.27,-0.765 -1.294,0 -2.456,0.296 -3.27,0.765 -0.814,0.468 -1.979,0.762 -3.27,0.762 -1.292,0 -2.458,-0.294 -3.27,-0.762 -0.815,-0.469 -1.979,-0.765 -3.272,-0.765 -1.292,0 -2.455,0.296 -3.268,0.765 -0.815,0.468 -1.978,0.762 -3.272,0.762 -0.121,0 -0.241,-0.005 -0.361,-0.01 l 0,-4.361 c 0.12,0.004 0.24,0.009 0.361,0.009 1.294,0 2.457,-0.293 3.272,-0.762 0.813,-0.471 1.976,-0.763 3.268,-0.763 1.293,0 2.457,0.292 3.272,0.763 0.812,0.469 1.978,0.762 3.27,0.762 1.291,0 2.456,-0.293 3.27,-0.762 0.814,-0.471 1.976,-0.763 3.27,-0.763 1.293,0 2.456,0.292 3.27,0.763 0.814,0.469 1.977,0.762 3.269,0.762 0.124,0 0.243,-0.005 0.362,-0.01 l 0,4.362 C 3.512,0.757 3.393,0.762 3.269,0.762 1.977,0.762 0.814,0.468 0,0"
           id="path6521"
           style="fill:#0072bc;fill-opacity:1;fill-rule:nonzero;stroke:none" />
      </g>
      <g
         transform="matrix(1.25,0,0,-1.25,298.18266,194.12216)"
         id="g6523">
        <path
           d="m 0,0 c -2.434,0 -4.407,-1.973 -4.407,-4.406 0,-0.22 0.022,-0.435 0.053,-0.645 0.404,0.122 0.77,0.276 1.084,0.456 0.812,0.468 1.978,0.762 3.27,0.762 1.291,0 2.456,-0.294 3.269,-0.762 0.314,-0.181 0.68,-0.334 1.085,-0.457 0.031,0.211 0.052,0.426 0.052,0.646 C 4.406,-1.973 2.434,0 0,0 m -6.006,-1.294 c -0.088,-0.013 -0.175,-0.038 -0.264,-0.054 -0.233,-0.04 -0.454,-0.045 -0.677,-0.037 -0.229,0.008 -0.498,0.062 -0.65,0.161 -0.039,-0.229 0.245,-0.532 0.485,-0.694 0.165,-0.113 0.339,-0.21 0.523,-0.27 0.072,-0.026 0.144,-0.038 0.215,-0.065 0.221,-0.077 0.437,-0.219 0.609,-0.371 0.223,-0.196 0.407,-0.446 0.578,-0.666 0.137,0.643 0.394,1.246 0.744,1.781 -0.232,0.083 -0.484,0.173 -0.758,0.215 -0.243,0.038 -0.53,0.042 -0.805,0 M 10.066,-4.407 5.228,-3.54 c 0.048,-0.282 0.079,-0.572 0.079,-0.867 0,-0.295 -0.031,-0.583 -0.079,-0.866 l 4.838,0.866 z m -15.299,0.867 -4.835,-0.867 4.837,-0.866 c -0.044,0.283 -0.077,0.571 -0.077,0.866 0,0.295 0.033,0.585 0.075,0.867 m 11.68,1.179 c 0.054,0.074 0.097,0.153 0.151,0.224 0.134,0.194 0.287,0.353 0.448,0.505 0.168,0.155 0.398,0.309 0.578,0.347 C 7.487,-1.098 7.072,-1.081 6.787,-1.137 6.591,-1.175 6.406,-1.227 6.227,-1.315 6.157,-1.349 6.097,-1.391 6.027,-1.424 5.817,-1.523 5.566,-1.578 5.334,-1.591 5.04,-1.611 4.732,-1.563 4.456,-1.527 l -0.004,0 c 0.348,-0.538 0.603,-1.138 0.739,-1.786 0.225,0.106 0.462,0.221 0.686,0.383 0.199,0.145 0.406,0.345 0.57,0.569 m -9.466,2.314 -3.042,1.703 1.697,-3.044 c 0.368,0.526 0.82,0.98 1.345,1.341 M 4.362,-1.388 6.059,1.656 3.019,-0.047 C 3.542,-0.408 3.997,-0.862 4.362,-1.388 M 0.892,0.82 0,9.686 -0.893,0.82 C -0.602,0.867 -0.306,0.899 0,0.899 0.303,0.899 0.6,0.867 0.892,0.82 m -3.984,1 c 0.033,-0.067 0.076,-0.129 0.108,-0.198 0.1,-0.212 0.156,-0.463 0.168,-0.691 0.018,-0.297 -0.027,-0.605 -0.063,-0.88 l 0,-0.006 C -2.345,0.394 -1.741,0.65 -1.094,0.786 -1.2,1.01 -1.313,1.25 -1.478,1.471 -1.622,1.671 -1.824,1.877 -2.045,2.039 -2.119,2.093 -2.197,2.138 -2.272,2.189 -2.465,2.326 -2.623,2.478 -2.777,2.639 -2.931,2.808 -3.085,3.038 -3.122,3.218 -3.31,3.081 -3.325,2.667 -3.27,2.38 -3.23,2.182 -3.179,1.997 -3.092,1.82 M 3.113,0.793 C 3.15,1.036 3.155,1.325 3.113,1.6 3.1,1.688 3.073,1.774 3.058,1.863 3.019,2.097 3.012,2.315 3.019,2.539 3.029,2.767 3.08,3.04 3.183,3.192 2.954,3.227 2.651,2.946 2.488,2.704 2.374,2.537 2.28,2.368 2.218,2.181 2.192,2.112 2.178,2.036 2.154,1.967 2.075,1.746 1.934,1.528 1.783,1.355 1.585,1.137 1.337,0.949 1.113,0.783 c 0,0 0,-0.002 0,-0.002 C 1.759,0.641 2.361,0.386 2.898,0.035 2.98,0.269 3.067,0.521 3.113,0.793"
           id="path6525"
           style="fill:#ebb71f;fill-opacity:1;fill-rule:nonzero;stroke:none" />
      </g>
    </g>
  </g>
</svg>
