<?xml version="1.0" encoding="UTF-8"?><svg id="Layer_1" xmlns="http://www.w3.org/2000/svg" viewBox="0 0 418 418"><defs><style>.cls-1{fill:#e61e2a;}.cls-2{fill:none;stroke:#000054;stroke-miterlimit:10;stroke-width:10px;}</style></defs><path class="cls-2" d="M300.29,289.45l82.65-33.06c5.57-2.23,11.92,.12,14.72,5.43,2.75,5.22,1.18,11.68-3.66,15.06l-110.73,77.29-118.24-24.33-53.04,26.76v-69.58l67.64-29.2,94.37,25.58c8.5,2.3,13.74,10.81,11.99,19.44-1.58,7.78-8.42,13.37-16.36,13.37h-50.1"/><polyline class="cls-2" points="111.98 269.1 111.98 378.96 19 378.96 19 269.1"/><rect class="cls-1" x="59.52" y="269.1" width="11.67" height="12.37"/><rect class="cls-1" x="59.52" y="269.1" width="11.67" height="12.37"/><rect class="cls-1" x="35.34" y="269.1" width="12.52" height="12.37"/><rect class="cls-1" x="35.34" y="269.1" width="12.52" height="12.37"/><rect class="cls-1" x="82.92" y="269.1" width="12.38" height="12.52" transform="translate(-187.21 361.45) rotate(-89.37)"/><rect class="cls-1" x="82.92" y="269.1" width="12.38" height="12.52" transform="translate(-187.21 361.45) rotate(-89.37)"/><path class="cls-2" d="M271.43,235.62c156.18-52.52,120.75-154.75,120.75-154.75-156.18,52.52-120.75,154.75-120.75,154.75Z"/><path class="cls-2" d="M257.45,159.13c-53.48-75-120.97-51.61-120.97-51.61,29.36,87.29,74.24,114.72,108.13,121.94"/><line class="cls-2" x1="271.43" y1="235.62" x2="323.46" y2="155.53"/></svg>