<?xml version="1.0" encoding="utf-8"?>
<!-- Generator: Adobe Illustrator 27.8.1, SVG Export Plug-In . SVG Version: 6.00 Build 0)  -->
<svg version="1.1" id="Layer_1" xmlns="http://www.w3.org/2000/svg" xmlns:xlink="http://www.w3.org/1999/xlink" x="0px" y="0px"
	 viewBox="0 0 406.32 406.32" style="enable-background:new 0 0 406.32 406.32;" xml:space="preserve">
<style type="text/css">
	.st0{display:none;}
	.st1{display:inline;}
	.st2{fill:#FFFFFF;}
</style>
<g id="Box">
</g>
<g id="Guides" class="st0">
	<rect class="st1" width="406.32" height="406.32"/>
</g>
<rect class="st2" width="406.32" height="406.32"/>
<g id="UTS_Logo_VERTICAL_Lock-Up">
	<g>
		<rect x="206.4" y="190.41" transform="matrix(0.7071 -0.7071 0.7071 0.7071 -79.0148 213.3791)" width="23.32" height="23.32"/>
		<path d="M271.49,206l12.56,12.56l16.49-16.49l-16.8-16.8c-6.77-6.77-17.73-6.77-24.5,0l-57.67,57.67l16.49,16.49L271.49,206z"/>
		<path d="M267.56,275.92l-16.49-16.49l-12.56,12.56l-12.56-12.56l-16.5,16.5l16.8,16.8c6.77,6.77,17.73,6.77,24.5,0L267.56,275.92z
			"/>
		<path d="M271.49,304.98l-12.56-12.56l-16.5,16.5l16.81,16.81c6.77,6.77,17.73,6.77,24.5,0l16.81-16.81l-16.5-16.5L271.49,304.98z"
			/>
		<path d="M304.48,271.99l-12.56-12.56l-16.49,16.49l16.81,16.81c6.77,6.77,17.73,6.77,24.5,0l16.8-16.8l-16.5-16.5L304.48,271.99z"
			/>
		<rect x="313.25" y="231.27" transform="matrix(0.7071 -0.7071 0.7071 0.7071 -76.6178 300.8991)" width="23.32" height="23.33"/>
		<path d="M271.49,239l-12.56-12.56l-16.49,16.49l16.8,16.8c6.77,6.77,17.73,6.77,24.5,0l57.67-57.67l-16.5-16.5L271.49,239z"/>
		<rect x="255.96" y="80.96" transform="matrix(0.7073 -0.707 0.707 0.7073 11.2498 220.2018)" width="31.11" height="31.11"/>
		<path d="M244.05,146.6h15.78v31.23c7.17-4.25,16.17-4.25,23.33,0V146.6h15.78l10.33,10.33l22-22l-22-22l-10.33,10.33h-54.89
			l-10.33-10.33l-22,22l22,22L244.05,146.6z"/>
		<polygon points="74.92,167.12 74.92,231.32 94.19,231.32 94.19,210.07 174.64,210.07 174.64,188.37 94.19,188.37 94.19,167.12 		
			"/>
		<path d="M144.13,250.47H74.92v21.71h68.91c8.04,0,13.05,4.71,13.05,12.14c0,7.59-5.01,12.14-13.05,12.14H74.92v21.71h69.21
			c19.73,0,32.03-13.66,32.03-33.85S163.86,250.47,144.13,250.47z"/>
		<path d="M144.89,86.64c-18.37,0-24.74,11.84-29.45,24.29l-4.71,12.45c-2.58,6.83-6.98,8.04-9.87,8.04
			c-5.46,0-9.56-3.95-9.56-10.93c0-6.83,4.55-11.38,11.69-11.38h2.73V88.77h-2.28c-18.52,0-30.05,12.75-30.05,31.72
			c0,19.88,13.66,31.42,28.84,31.42c14.57,0,23.22-7.59,28.69-22.01l5.31-13.96c2.43-6.22,5.77-8.65,10.78-8.65
			c6.98,0,11.08,4.55,11.08,12.75s-3.79,13.21-11.84,13.21h-3.64v20.49h3.49c18.52,0,30.05-14.27,30.05-33.7
			C176.16,98.79,163.25,86.64,144.89,86.64z"/>
	</g>
</g>
</svg>
