<?xml version="1.0" encoding="UTF-8"?>
<svg width="94px" height="48px" viewBox="0 0 94 48" version="1.1" xmlns="http://www.w3.org/2000/svg" xmlns:xlink="http://www.w3.org/1999/xlink">
    <!-- Generator: sketchtool 62 (101010) - https://sketch.com -->
    <title>AEDE1986-369B-4DF2-8EF4-DFBEC660D5F5@1.00x</title>
    <desc>Created with sketchtool.</desc>
    <g id="Footer" stroke="none" stroke-width="1" fill="none" fill-rule="evenodd">
        <g id="Footer-/-Desktop" transform="translate(-635.000000, -621.000000)">
            <g id="Group-networks" transform="translate(635.000000, 621.000000)">
                <g id="Go8_MEMBER_MONO-2">
                    <g id="Go8_MEMBER_MONO">
                        <line x1="46.2130386" y1="38.3023448" x2="93.7077754" y2="38.3023448" id="Stroke-1" stroke="#FFFFFF"/>
                        <polyline id="Fill-2" fill="#FFFFFF" points="46.3076982 43.0536828 46.9607509 43.0536828 48.6629754 46.9873655 50.3652 43.0536828 50.9852702 43.0536828 50.9852702 47.7421241 50.5499018 47.7421241 50.5499018 43.6101517 50.5367088 43.6101517 48.7553263 47.7421241 48.5640281 47.7421241 46.7562596 43.6101517 46.7430667 43.6101517 46.7430667 47.7421241 46.3076982 47.7421241 46.3076982 43.0536828"/>
                        <polyline id="Fill-3" fill="#FFFFFF" points="52.8184351 43.0536828 55.6753754 43.0536828 55.6753754 43.4512552 53.2538035 43.4512552 53.2538035 45.12 55.5236561 45.12 55.5236561 45.5172414 53.2538035 45.5172414 53.2538035 47.3448828 55.7809193 47.3448828 55.7809193 47.7421241 52.8184351 47.7421241 52.8184351 43.0536828"/>
                        <polyline id="Fill-4" fill="#FFFFFF" points="57.200814 43.0536828 57.8541965 43.0536828 59.5564211 46.9873655 61.2583158 43.0536828 61.8787158 43.0536828 61.8787158 47.7421241 61.4430175 47.7421241 61.4430175 43.6101517 61.4298246 43.6101517 59.6484421 47.7421241 59.4571439 47.7421241 57.6497053 43.6101517 57.6365123 43.6101517 57.6365123 47.7421241 57.200814 47.7421241 57.200814 43.0536828"/>
                        <path d="M64.1472491,47.3448828 L65.1433193,47.3448828 C66.1661053,47.3448828 66.3310175,46.7755034 66.3310175,46.444469 C66.3310175,45.7489655 65.7637193,45.4775172 65.2092842,45.4775172 L64.1472491,45.4775172 L64.1472491,47.3448828 Z M64.1472491,45.0799448 L65.0509684,45.0799448 C65.9550175,45.0799448 66.1265263,44.5833931 66.1265263,44.2924138 C66.1265263,43.6366345 65.6644421,43.4512552 65.1106667,43.4512552 L64.1472491,43.4512552 L64.1472491,45.0799448 Z M63.7115509,43.0536828 L65.0575649,43.0536828 C65.7703158,43.0536828 66.5618947,43.2324414 66.5618947,44.2924138 C66.5618947,44.7691034 66.2782456,45.1531034 65.7241404,45.2656552 L65.7241404,45.2788966 C66.337614,45.3252414 66.766386,45.7754483 66.766386,46.4312276 C66.766386,47.5104 65.8362807,47.7421241 65.2026877,47.7421241 L63.7115509,47.7421241 L63.7115509,43.0536828 L63.7115509,43.0536828 Z" id="Fill-5" fill="#FFFFFF"/>
                        <polyline id="Fill-6" fill="#FFFFFF" points="68.4194667 43.0536828 71.276407 43.0536828 71.276407 43.4512552 68.8548351 43.4512552 68.8548351 45.12 71.1246877 45.12 71.1246877 45.5172414 68.8548351 45.5172414 68.8548351 47.3448828 71.3816211 47.3448828 71.3816211 47.7421241 68.4194667 47.7421241 68.4194667 43.0536828"/>
                        <path d="M73.2599719,45.12 L74.1834807,45.12 C75.1007228,45.12 75.2788281,44.6102069 75.2788281,44.2854621 C75.2788281,43.9610483 75.1007228,43.4512552 74.1834807,43.4512552 L73.2599719,43.4512552 L73.2599719,45.12 Z M72.8242737,43.0536828 L74.0515509,43.0536828 C74.4209544,43.0536828 75.7141965,43.0536828 75.7141965,44.2854621 C75.7141965,45.1795862 75.0347579,45.4245517 74.5199018,45.4907586 L75.8791088,47.7421241 L75.3843719,47.7421241 L74.0716702,45.5172414 L73.2599719,45.5172414 L73.2599719,47.7421241 L72.8242737,47.7421241 L72.8242737,43.0536828 L72.8242737,43.0536828 Z" id="Fill-7" fill="#FFFFFF"/>
                        <path d="M49.9113614,12.633931 C47.0343018,12.633931 46.2697684,11.2161103 46.2697684,9.42057931 L46.2697684,6.44193103 C46.2697684,4.47757241 46.8139789,2.79988966 50.1188211,2.79988966 C51.8167579,2.79988966 52.6330737,3.3590069 52.8019439,3.52783448 C52.9440982,3.67117241 52.4513404,4.69870345 52.2702667,4.58184828 C51.9463789,4.3478069 51.3761123,4.0224 50.2095228,4.0224 C48.6022877,4.0224 47.8766737,4.55569655 47.8766737,6.49390345 L47.8766737,9.27757241 C47.8766737,10.8516414 48.421214,11.4888828 49.8856351,11.4888828 C51.0518947,11.4888828 51.6353544,11.1247448 51.6353544,9.83702069 L51.6353544,8.61417931 C51.6353544,8.47117241 51.6224912,8.34074483 51.3893053,8.34074483 L50.5076842,8.32783448 C50.3262807,8.32783448 50.2484421,8.31492414 50.2484421,8.10670345 C50.2484421,7.9766069 50.2484421,7.56049655 50.2484421,7.45655172 C50.2484421,7.32645517 50.2484421,7.22217931 50.4298456,7.22217931 L52.5552351,7.22217931 C53.0737193,7.22217931 53.1386947,7.31354483 53.1386947,7.75547586 L53.1386947,9.58973793 C53.1386947,11.0078897 52.8276702,12.633931 49.9113614,12.633931" id="Fill-8" fill="#FFFFFF"/>
                        <path d="M57.5952842,4.12667586 L56.3901053,4.12667586 C56.1955088,4.13958621 56.1569193,4.25644138 56.1569193,4.36071724 L56.1569193,7.01395862 C56.1569193,7.248 56.2087018,7.26091034 56.4158316,7.26091034 L58.0102035,7.26091034 C58.9300842,7.26091034 59.6303018,6.7670069 59.6303018,5.71365517 C59.6303018,4.52954483 58.6968982,4.12667586 57.5952842,4.12667586 Z M59.4746246,8.13285517 C59.2932211,8.18482759 59.2932211,8.17191724 59.3710596,8.32783448 L61.1596982,12.009269 C61.3279088,12.3604966 61.3018526,12.4644414 61.0429404,12.4644414 L59.889214,12.4644414 C59.6560281,12.4644414 59.6174386,12.3604966 59.5135439,12.1135448 L57.8545263,8.62708966 C57.8027439,8.52314483 57.7509614,8.49732414 57.6342035,8.49732414 L56.2990737,8.49732414 C56.1569193,8.49732414 56.1569193,8.53605517 56.1569193,8.70554483 L56.1569193,12.048 C56.1569193,12.3866483 56.0787509,12.4644414 55.8455649,12.4644414 L54.8349825,12.4644414 C54.5496842,12.4644414 54.5757404,12.3085241 54.5757404,12.009269 L54.5757404,3.28088276 C54.5757404,3.03393103 54.6146596,2.94256552 54.8864351,2.94256552 L57.6602596,2.94256552 C59.9799158,2.94256552 61.2114807,3.95718621 61.2114807,5.71365517 C61.2114807,7.07917241 60.2002386,7.95078621 59.4746246,8.13285517 L59.4746246,8.13285517 Z" id="Fill-9" fill="#FFFFFF"/>
                        <path d="M67.4827649,6.11652414 C67.4827649,4.69870345 66.8346596,4.07437241 65.5902316,4.07437241 C64.0611649,4.07437241 63.5423509,4.80297931 63.5423509,6.16882759 L63.5423509,9.56358621 C63.5423509,10.8907034 64.6053754,11.3458759 65.5645053,11.3458759 C66.6143368,11.3458759 67.4827649,11.0208 67.4827649,9.31663448 L67.4827649,6.11652414 Z M65.5645053,12.633931 C64.2814877,12.633931 62.0132842,12.3604966 62.0132842,9.90223448 L62.0132842,6.06455172 C62.0132842,3.73605517 63.1406246,2.79988966 65.525586,2.79988966 C67.4435158,2.79988966 69.0507509,3.52783448 69.0507509,6.02548966 L69.0507509,9.49870345 C69.0507509,12.5554759 66.6789825,12.633931 65.5645053,12.633931 L65.5645053,12.633931 Z" id="Fill-10" fill="#FFFFFF"/>
                        <path d="M73.2744842,12.633931 C71.8100632,12.633931 69.9825053,11.9963586 69.9825053,9.73274483 L69.9825053,3.28088276 C69.9825053,3.03393103 70.0342877,2.95547586 70.2028281,2.94256552 L71.1876842,2.94256552 C71.408007,2.94256552 71.5115719,3.03393103 71.5115719,3.37191724 L71.5115719,9.23884138 C71.5115719,10.5785379 72.2378456,11.3329655 73.2744842,11.3329655 C74.7131789,11.3329655 75.0631228,10.5136552 75.0631228,9.21268966 L75.0631228,3.28088276 C75.0631228,3.03393103 75.1145754,2.95547586 75.2834456,2.94256552 L76.2940281,2.94256552 C76.5143509,2.94256552 76.6182456,3.03393103 76.6182456,3.37191724 L76.6182456,9.51161379 C76.6182456,12.2433103 74.6739298,12.633931 73.2744842,12.633931" id="Fill-11" fill="#FFFFFF"/>
                        <path d="M80.6477123,4.12667586 L79.4422035,4.12667586 C79.247607,4.13958621 79.2090175,4.25644138 79.2090175,4.36071724 L79.2090175,7.57373793 C79.2090175,7.79486897 79.2608,7.82102069 79.4679298,7.82102069 L81.0365754,7.82102069 C81.9696491,7.82102069 82.6695368,7.26091034 82.6695368,5.8953931 C82.6695368,4.63382069 81.7493263,4.12667586 80.6477123,4.12667586 Z M80.8940912,9.05644138 L79.4164772,9.05644138 C79.2347439,9.05644138 79.2090175,9.09550345 79.2090175,9.31663448 L79.2090175,12.048 C79.2090175,12.3866483 79.1311789,12.4644414 78.897993,12.4644414 L77.8870807,12.4644414 C77.6017825,12.4644414 77.6278386,12.3085241 77.6278386,12.009269 L77.6278386,3.28088276 C77.6278386,3.03393103 77.6667579,2.94256552 77.9388632,2.94256552 L80.7126877,2.94256552 C83.0969895,2.94256552 84.2635789,3.95718621 84.2635789,5.96093793 C84.2635789,7.96369655 83.1491018,9.05644138 80.8940912,9.05644138 L80.8940912,9.05644138 Z" id="Fill-12" fill="#FFFFFF"/>
                        <path d="M51.7389193,17.5481379 C51.7389193,16.1303172 51.090814,15.5066483 49.8467158,15.5066483 C48.3173193,15.5066483 47.7988351,16.2345931 47.7988351,17.6007724 L47.7988351,20.9958621 C47.7988351,22.3223172 48.8615298,22.7774897 49.8206596,22.7774897 C50.8704912,22.7774897 51.7389193,22.4524138 51.7389193,20.7485793 L51.7389193,17.5481379 Z M49.8206596,24.0655448 C48.5376421,24.0655448 46.2697684,23.7924414 46.2697684,21.3338483 L46.2697684,17.4964966 C46.2697684,15.167669 47.3971088,14.2315034 49.7820702,14.2315034 C51.7,14.2315034 53.3069053,14.9597793 53.3069053,17.4574345 L53.3069053,20.9303172 C53.3069053,23.9874207 50.9351368,24.0655448 49.8206596,24.0655448 L49.8206596,24.0655448 Z" id="Fill-13" fill="#FFFFFF"/>
                        <path d="M58.9564702,15.5712 L56.0922737,15.5712 C55.8069754,15.5712 55.7548632,15.6751448 55.7548632,15.7794207 L55.7548632,18.3287172 C55.7548632,18.576 55.8327018,18.6279724 56.0401614,18.6279724 L58.5286877,18.6279724 C58.8914947,18.6279724 58.943607,18.7064276 58.9175509,18.8623448 L58.8657684,19.603531 C58.8136561,19.8640552 58.5158246,19.8379034 58.2565825,19.8379034 L56.0790807,19.8379034 C55.8327018,19.8379034 55.7809193,19.9289379 55.7809193,20.150069 L55.7809193,23.6623448 C55.7809193,23.8444138 55.7034105,23.8963862 55.5737895,23.8963862 L54.5368211,23.8963862 C54.3686105,23.8963862 54.2647158,23.8056828 54.2647158,23.5193379 L54.2647158,14.803531 C54.2647158,14.5565793 54.2775789,14.3745103 54.5107649,14.3745103 L59.0468421,14.3745103 C59.3585263,14.3745103 59.3971158,14.4526345 59.3971158,14.582731 L59.3971158,15.2980966 C59.3971158,15.532469 59.2674947,15.5712 58.9564702,15.5712" id="Fill-14" fill="#FFFFFF"/>
                        <path d="M67.7934596,23.8963862 L62.8685193,23.8963862 C62.7003088,23.8963862 62.5703579,23.8056828 62.5703579,23.5193379 L62.5703579,14.803531 C62.5703579,14.5565793 62.5835509,14.3745103 62.8167368,14.3745103 L67.5088211,14.3745103 C67.8195158,14.3745103 67.8584351,14.4006621 67.8584351,14.582731 L67.8584351,15.350069 C67.8584351,15.5582897 67.6252491,15.5582897 67.2624421,15.5582897 L64.3850526,15.5582897 C64.1000842,15.5582897 64.0479719,15.6622345 64.0479719,15.7665103 L64.0479719,18.0168828 C64.0479719,18.2641655 64.1261404,18.3158069 64.3332702,18.3158069 L66.8993053,18.3158069 C67.2624421,18.3158069 67.3142246,18.3810207 67.2884982,18.5498483 L67.1974667,19.2784552 C67.1582175,19.5515586 66.8346596,19.5254069 66.5882807,19.5254069 L64.4368351,19.5254069 C64.1647298,19.5254069 64.0740281,19.603531 64.0740281,19.8246621 L64.0740281,22.3746207 C64.0740281,22.6735448 64.2293754,22.6606345 64.4496982,22.6606345 L67.5863298,22.6606345 C67.9230807,22.6606345 68.0658947,22.6996966 68.0658947,22.9075862 L68.0658947,23.6623448 C68.0658947,23.8444138 67.9230807,23.8963862 67.7934596,23.8963862" id="Fill-15" fill="#FFFFFF"/>
                        <path d="M70.2288842,23.8963862 L69.2308351,23.8963862 C68.9976491,23.8963862 68.9330035,23.8185931 68.9330035,23.5322483 L68.9330035,14.6608552 C68.9330035,14.4135724 68.9976491,14.3745103 69.2829474,14.3745103 L70.2420772,14.3745103 C70.4752632,14.3745103 70.5009895,14.4526345 70.5009895,14.7386483 L70.5009895,23.5974621 C70.5009895,23.8185931 70.4624,23.8963862 70.2288842,23.8963862" id="Fill-16" fill="#FFFFFF"/>
                        <path d="M75.1013825,24.0655448 C72.2243228,24.0655448 71.4594596,22.6477241 71.4594596,20.8525241 L71.4594596,17.8735448 C71.4594596,15.9091862 72.004,14.2315034 75.3091719,14.2315034 C77.0067789,14.2315034 77.8234246,14.7906207 77.9916351,14.9597793 C78.1341193,15.1031172 77.6416912,16.1303172 77.4606175,16.0134621 C77.1364,15.7794207 76.5661333,15.4540138 75.3995439,15.4540138 C73.7926386,15.4540138 73.0666947,15.9876414 73.0666947,17.9258483 L73.0666947,20.7091862 C73.0666947,22.2835862 73.6112351,22.9208276 75.0753263,22.9208276 C76.2419158,22.9208276 76.8253754,22.5563586 76.8253754,21.2686345 L76.8253754,20.0457931 C76.8253754,19.9031172 76.8121825,19.7726897 76.5789965,19.7726897 L75.6977053,19.7597793 C75.5163018,19.7597793 75.438793,19.7465379 75.438793,19.5386483 C75.438793,19.4085517 75.438793,18.9924414 75.438793,18.8884966 C75.438793,18.7584 75.438793,18.6541241 75.6198667,18.6541241 L77.745586,18.6541241 C78.2640702,18.6541241 78.328386,18.7451586 78.328386,19.1874207 L78.328386,21.0216828 C78.328386,22.4395034 78.0176912,24.0655448 75.1013825,24.0655448" id="Fill-17" fill="#FFFFFF"/>
                        <path d="M85.9222667,23.8963862 L84.9502737,23.8963862 C84.742814,23.8963862 84.6389193,23.8056828 84.6389193,23.5193379 L84.6389193,19.8117517 C84.6389193,19.5777103 84.6,19.5515586 84.3928702,19.5515586 L81.0230526,19.5515586 C80.8673754,19.5515586 80.815593,19.5648 80.815593,19.7726897 L80.815593,23.4802759 C80.815593,23.8185931 80.7377544,23.8963862 80.4267298,23.8963862 L79.5197123,23.8963862 C79.2993895,23.8963862 79.2472772,23.7662897 79.2472772,23.4150621 L79.2472772,14.7124966 C79.2472772,14.4655448 79.2993895,14.3745103 79.5325754,14.3745103 L80.4659789,14.3745103 C80.7506175,14.3745103 80.815593,14.4655448 80.815593,14.803531 L80.815593,18.0688552 C80.815593,18.2770759 80.9062947,18.3158069 81.1137544,18.3158069 L84.4185965,18.3158069 C84.5739439,18.3158069 84.6389193,18.2512552 84.6389193,18.0946759 L84.6389193,14.7257379 C84.6389193,14.4784552 84.7299509,14.3745103 85.0020561,14.3745103 L85.9090737,14.3745103 C86.2069053,14.3745103 86.2069053,14.4784552 86.2069053,14.6995862 L86.2069053,23.4802759 C86.2069053,23.8185931 86.1811789,23.8963862 85.9222667,23.8963862" id="Fill-18" fill="#FFFFFF"/>
                        <path d="M93.4762386,15.5841103 L91.3765754,15.5841103 C91.1176632,15.5841103 91.0787439,15.6235034 91.0787439,15.8313931 L91.0787439,23.4673655 C91.0787439,23.8056828 91.0394947,23.8963862 90.7545263,23.8963862 L89.8600421,23.8963862 C89.5750737,23.8963862 89.5232912,23.8444138 89.5232912,23.4673655 L89.5232912,15.8313931 C89.5232912,15.6235034 89.4847018,15.5841103 89.2248,15.5841103 L87.151193,15.5841103 C86.918007,15.5841103 86.8794175,15.5195586 86.8794175,15.389131 L86.8794175,14.582731 C86.8794175,14.4006621 86.9704491,14.3745103 87.2422246,14.3745103 L93.3726737,14.3745103 C93.6319158,14.3745103 93.7483439,14.3874207 93.7483439,14.5565793 L93.7483439,15.389131 C93.7483439,15.5066483 93.7097544,15.5841103 93.4762386,15.5841103" id="Fill-19" fill="#FFFFFF"/>
                        <path d="M48.4103298,26.6208 L47.1705193,30.8610207 L49.6402456,30.8610207 L48.4103298,26.6208 Z M50.9008351,33.5510069 L50.5541895,33.5510069 C50.4070877,33.5510069 50.4281965,33.4980414 50.3648702,33.2765793 L49.776793,31.3357241 L47.0230877,31.3357241 L46.4449053,33.2765793 C46.3819088,33.4980414 46.3611298,33.5510069 46.2453614,33.5510069 L45.877607,33.5510069 C45.7829474,33.5510069 45.772393,33.5404138 45.877607,33.2030897 L48.0109123,26.1676138 C48.0844632,25.9246345 48.1372351,25.8299586 48.3156702,25.8299586 L48.5574316,25.8299586 C48.7361965,25.8299586 48.7886386,25.9246345 48.8621895,26.1676138 L50.9954947,33.2030897 C51.1010386,33.5404138 51.0060491,33.5510069 50.9008351,33.5510069 L50.9008351,33.5510069 Z" id="Fill-20" fill="#FFFFFF"/>
                        <path d="M54.0335088,33.6880552 C52.7514807,33.6880552 51.6165544,32.928331 51.6165544,31.3357241 L51.6165544,26.1040552 C51.6165544,25.9037793 51.6376632,25.8402207 51.6901053,25.8299586 L52.0786386,25.8299586 C52.1525193,25.8299586 52.194407,25.9037793 52.194407,26.1778759 L52.194407,31.1460414 C52.194407,32.4539586 52.9408,33.1921655 54.0335088,33.1921655 C55.5150807,33.1921655 55.8937193,32.4436966 55.8937193,31.1248552 L55.8937193,26.1040552 C55.8937193,25.9037793 55.9144982,25.8402207 55.9672702,25.8299586 L56.3561333,25.8299586 C56.430014,25.8299586 56.4719018,25.9037793 56.4719018,26.1778759 L56.4719018,31.1563034 C56.4719018,33.1819034 55.2842035,33.6880552 54.0335088,33.6880552" id="Fill-21" fill="#FFFFFF"/>
                        <path d="M59.5943509,33.6986483 C58.4693193,33.6986483 57.8076912,33.4454069 57.5128281,33.2659862 C57.4079439,33.2030897 57.6078175,32.6754207 57.7338105,32.7386483 C58.0283439,32.8862897 58.5428702,33.1921655 59.5729123,33.1921655 C60.718393,33.1921655 61.7065474,32.8333241 61.7065474,31.7369379 C61.7065474,30.8186483 61.3071298,30.354869 59.8357825,29.7745655 C58.6058667,29.2896 57.8076912,28.751669 57.8076912,27.5278345 C57.8076912,26.7158069 58.4274316,25.7137655 60.2559789,25.7137655 C61.4334526,25.7137655 61.7382105,25.872 61.9479789,25.9458207 C62.1478526,26.0193103 61.9272,26.4943448 61.7800982,26.4417103 C61.5172281,26.3467034 60.9707088,26.2199172 60.3087509,26.2199172 C58.8374035,26.2199172 58.4063228,26.7790345 58.4063228,27.5910621 C58.4063228,28.4775724 58.9422877,28.8466759 60.2559789,29.3531586 C61.9060912,29.9857655 62.3051789,30.7345655 62.3051789,31.6101517 C62.3051789,33.1074207 61.0442596,33.6986483 59.5943509,33.6986483" id="Fill-22" fill="#FFFFFF"/>
                        <path d="M67.5711579,26.3467034 L65.7848281,26.3467034 C65.5536211,26.3467034 65.5430667,26.3781517 65.5430667,26.5469793 L65.5430667,33.2030897 C65.5430667,33.4771862 65.5638456,33.5510069 65.4065193,33.5510069 L65.091207,33.5510069 C64.9648842,33.5510069 64.9546596,33.5086345 64.9546596,33.2030897 L64.9546596,26.5469793 C64.9546596,26.3781517 64.9441053,26.3467034 64.7128982,26.3467034 L62.9054596,26.3467034 C62.7580281,26.3467034 62.7158105,26.3361103 62.7158105,26.2622897 L62.7158105,25.9352276 C62.7158105,25.8508138 62.7266947,25.8299586 62.9156842,25.8299586 L67.5398246,25.8299586 C67.7080351,25.8299586 67.7499228,25.8299586 67.7499228,25.9037793 L67.7499228,26.2622897 C67.7499228,26.3255172 67.7080351,26.3467034 67.5711579,26.3467034" id="Fill-23" fill="#FFFFFF"/>
                        <path d="M70.5356211,26.3149241 L69.3482526,26.3149241 C69.1905965,26.3255172 69.1592632,26.4201931 69.1592632,26.5049379 L69.1592632,29.2896 C69.1592632,29.4902069 69.2011509,29.4902069 69.3690316,29.4902069 L70.9561474,29.4902069 C71.9439719,29.4902069 72.637593,28.9837241 72.637593,27.9287172 C72.637593,26.6522483 71.6916561,26.3149241 70.5356211,26.3149241 Z M71.6811018,29.9013517 C71.5445544,29.9225379 71.5343298,29.9225379 71.5969965,30.0384 L73.2154456,33.1819034 C73.3836561,33.5195586 73.3206596,33.5510069 73.1735579,33.5510069 L72.8058035,33.5510069 C72.7111439,33.5510069 72.6583719,33.4771862 72.5640421,33.2765793 L70.9983649,30.0807724 C70.9561474,29.9963586 70.9037053,29.9751724 70.7984912,29.9751724 L69.3060351,29.9751724 C69.1800421,29.9751724 69.1800421,29.9963586 69.1800421,30.1545931 L69.1800421,33.2136828 C69.1800421,33.4877793 69.1694877,33.5510069 69.0748281,33.5510069 L68.7176281,33.5510069 C68.5494175,33.5510069 68.5701965,33.4242207 68.5701965,33.1819034 L68.5701965,26.1040552 C68.5701965,25.9037793 68.5701965,25.8299586 68.7598456,25.8299586 L70.5042877,25.8299586 C72.2800632,25.8299586 73.2573333,26.4731586 73.2573333,27.8969379 C73.2573333,29.0363586 72.3750526,29.7851586 71.6811018,29.9013517 L71.6811018,29.9013517 Z" id="Fill-24" fill="#FFFFFF"/>
                        <path d="M77.1575088,26.6208 L75.9173684,30.8610207 L78.3870947,30.8610207 L77.1575088,26.6208 Z M79.648014,33.5510069 L79.3013684,33.5510069 C79.1542667,33.5510069 79.1753754,33.4980414 79.1120491,33.2765793 L78.5236421,31.3357241 L75.7702667,31.3357241 L75.1920842,33.2765793 C75.1290877,33.4980414 75.1083088,33.5510069 74.9922105,33.5510069 L74.624786,33.5510069 C74.5301263,33.5510069 74.5195719,33.5404138 74.624786,33.2030897 L76.7580912,26.1676138 C76.8313123,25.9246345 76.8840842,25.8299586 77.0628491,25.8299586 L77.3046105,25.8299586 C77.4833754,25.8299586 77.5358175,25.9246345 77.6093684,26.1676138 L79.7423439,33.2030897 C79.8478877,33.5404138 79.7535579,33.5510069 79.648014,33.5510069 L79.648014,33.5510069 Z" id="Fill-25" fill="#FFFFFF"/>
                        <path d="M84.8404421,33.5510069 L81.1622386,33.5510069 C81.0359158,33.5510069 80.9940281,33.4877793 80.9940281,33.1819034 L80.9940281,26.1040552 C80.9940281,25.9037793 81.0045825,25.8299586 81.1516842,25.8299586 L81.4247789,25.8299586 C81.5824351,25.8299586 81.5824351,25.9037793 81.5824351,26.1778759 L81.5824351,32.8651034 C81.5824351,33.033931 81.655986,33.0653793 81.8245263,33.0653793 L84.8193333,33.0653793 C84.9875439,33.0653793 84.9769895,33.0763034 84.9769895,33.2345379 L84.9769895,33.3927724 C84.9769895,33.5510069 84.9769895,33.5510069 84.8404421,33.5510069" id="Fill-26" fill="#FFFFFF"/>
                        <path d="M86.3441123,33.5510069 L85.9763579,33.5510069 C85.8919228,33.5510069 85.8919228,33.4980414 85.8919228,33.2871724 L85.8919228,26.0090483 C85.8919228,25.8508138 85.923586,25.8299586 86.0914667,25.8299586 L86.3230035,25.8299586 C86.4908842,25.8299586 86.4806596,25.8617379 86.4806596,26.082869 L86.4806596,33.3189517 C86.4806596,33.4980414 86.4806596,33.5510069 86.3441123,33.5510069" id="Fill-27" fill="#FFFFFF"/>
                        <path d="M90.516393,26.6208 L89.2765825,30.8610207 L91.7463088,30.8610207 L90.516393,26.6208 Z M93.0072281,33.5510069 L92.6602526,33.5510069 C92.5131509,33.5510069 92.5342596,33.4980414 92.4709333,33.2765793 L91.8828561,31.3357241 L89.1291509,31.3357241 L88.5509684,33.2765793 C88.4879719,33.4980414 88.467193,33.5510069 88.3514246,33.5510069 L87.9836702,33.5510069 C87.8890105,33.5510069 87.8784561,33.5404138 87.9836702,33.2030897 L90.1173053,26.1676138 C90.1905263,25.9246345 90.2432982,25.8299586 90.4217333,25.8299586 L90.6634947,25.8299586 C90.8422596,25.8299586 90.8947018,25.9246345 90.9685825,26.1676138 L93.1015579,33.2030897 C93.2071018,33.5404138 93.1124421,33.5510069 93.0072281,33.5510069 L93.0072281,33.5510069 Z" id="Fill-28" fill="#FFFFFF"/>
                        <polyline id="Fill-29" fill="#FFFFFF" points="0.322238596 16.1932138 3.1221193 28.0273655 11.2651579 18.2360276 0.322238596 16.1932138"/>
                        <polyline id="Fill-30" fill="#FFFFFF" points="19.0546246 0.440606897 0.541901754 15.6446897 11.6292842 17.7143172 19.0546246 0.440606897"/>
                        <polyline id="Fill-31" fill="#FFFFFF" points="27.1406035 8.25335172 19.7551719 0.273765517 12.4291088 17.3160828 27.1406035 8.25335172"/>
                        <polyline id="Fill-32" fill="#FFFFFF" points="25.331186 25.6101517 26.9954807 9.0230069 12.3651228 18.0350897 25.331186 25.6101517"/>
                        <polyline id="Fill-33" fill="#FFFFFF" points="27.5730035 9.04617931 25.9050807 25.6727172 41.2257614 20.6254345 27.5730035 9.04617931"/>
                        <polyline id="Fill-34" fill="#FFFFFF" points="41.6011018 21.1113931 25.8420842 26.303669 25.8397754 26.3251862 34.4627088 34.041931 41.6011018 21.1113931"/>
                        <polyline id="Fill-35" fill="#FFFFFF" points="3.61619649 28.3368828 25.0854667 26.1371586 11.8680772 18.4151172 3.61619649 28.3368828"/>
                        <polyline id="Fill-36" fill="#FFFFFF" points="30.5219649 0.243310345 27.4522877 8.18118621 41.4144211 20.0272552 30.5219649 0.243310345"/>
                    </g>
                </g>
            </g>
        </g>
    </g>
</svg>
