<svg xmlns="http://www.w3.org/2000/svg" viewBox="0 0 160 45.48"><defs><style>.cls-1{fill:#a48545;}.cls-2{fill:#c31230;}.cls-3{fill:#740005;}.cls-4{fill:#c8b182;}</style></defs><g id="Layer_2" data-name="Layer 2"><g id="University_of_Divinity" data-name="University of Divinity"><g id="University_of_Divinity-2" data-name="University of Divinity"><polygon class="cls-1" points="16.25 0 16.25 10.81 17.59 11.59 18.41 14.55 23.14 19.34 23.14 6.98 16.25 0"/><polygon class="cls-1" points="0 17.33 9.36 22.74 10.71 21.96 13.68 22.74 20.19 21.04 9.48 14.86 0 17.33"/><polygon class="cls-1" points="6.89 40.07 16.25 34.67 16.25 33.11 18.41 30.93 20.19 24.44 9.48 30.62 6.89 40.07"/><polygon class="cls-1" points="30.02 45.48 30.02 34.67 28.68 33.89 27.86 30.93 23.14 26.14 23.14 38.5 30.02 45.48"/><polygon class="cls-1" points="46.27 28.14 36.91 22.74 35.56 23.52 32.59 22.74 26.08 24.44 36.78 30.62 46.27 28.14"/><polygon class="cls-2" points="46.27 17.33 36.78 14.86 26.08 21.04 35.56 23.52 46.27 17.33"/><polygon class="cls-3" points="39.38 5.41 36.78 14.86 26.08 21.04 28.68 11.59 39.38 5.41"/><polygon class="cls-4" points="6.89 5.41 9.48 14.86 20.19 21.04 17.59 11.59 6.89 5.41"/><polygon class="cls-4" points="0 28.14 9.48 30.62 20.19 24.44 10.71 21.96 0 28.14"/><polygon class="cls-4" points="16.25 45.48 23.14 38.5 23.14 26.14 16.25 33.11 16.25 45.48"/><polygon class="cls-4" points="39.38 40.07 36.78 30.62 26.08 24.44 28.68 33.89 39.38 40.07"/><polygon class="cls-4" points="28.68 11.59 30.02 10.81 30.02 0 23.14 6.98 23.14 19.34 27.86 14.55 28.68 11.59"/><path class="cls-4" d="M65.88,30c0-2.66,0-3.15,0-3.71s-.18-.87-.75-1a5.34,5.34,0,0,0-.69-.05c-.19,0-.29,0-.29-.16s.12-.16.38-.16c.93,0,2,0,2.52,0s1.64,0,2.69,0c2.19,0,5.1,0,7,2a6.26,6.26,0,0,1,1.69,4.44,6.93,6.93,0,0,1-1.9,4.88,8,8,0,0,1-5.86,2.06c-.62,0-1.34,0-2-.1s-1.28-.11-1.71-.11c-.19,0-.57,0-1,0l-1.21,0c-.23,0-.35-.05-.35-.17s.07-.14.28-.14a2.7,2.7,0,0,0,.63-.07c.35-.07.44-.45.51-1,.08-.74.08-2.12.08-3.72Zm2.19,1.92c0,1.85,0,3.2,0,3.53a3.85,3.85,0,0,0,.19,1.32c.23.34.91.7,2.3.7a5.59,5.59,0,0,0,4-1.26c1.12-1,1.47-2.56,1.47-4.35a5.91,5.91,0,0,0-1.68-4.37,6.94,6.94,0,0,0-5-1.74,4.69,4.69,0,0,0-1.13.12.33.33,0,0,0-.21.35c0,.59,0,2.11,0,3.49Z"/><path class="cls-4" d="M81.46,30c0-2.66,0-3.15,0-3.71s-.21-.89-.59-1a2.7,2.7,0,0,0-.63-.07c-.18,0-.28,0-.28-.17s.14-.14.42-.14c.66,0,1.76.05,2.27.05s1.47-.05,2.13-.05c.23,0,.37,0,.37.14s-.1.17-.28.17a3,3,0,0,0-.52.05c-.48.09-.62.39-.64,1s0,1.05,0,3.71v3.07c0,1.7,0,3.08.07,3.83,0,.48.18.79.7.85a6.69,6.69,0,0,0,.89.08c.19,0,.28.05.28.14s-.14.17-.33.17c-1.15,0-2.26,0-2.72,0s-1.5,0-2.2,0c-.23,0-.35,0-.35-.17s.07-.14.28-.14a2.72,2.72,0,0,0,.63-.08c.34-.06.45-.36.5-.87.09-.73.09-2.11.09-3.81Z"/><path class="cls-4" d="M88.54,26.64c-.4-1-.7-1.15-1.33-1.33a3.08,3.08,0,0,0-.68-.07c-.16,0-.21,0-.21-.16s.19-.16.45-.16c.93,0,1.92,0,2.54,0,.43,0,1.28,0,2.15,0,.2,0,.4,0,.4.16s-.11.16-.26.16a1.34,1.34,0,0,0-.69.12.45.45,0,0,0-.17.37,5.37,5.37,0,0,0,.4,1.35l3,7.93h.07c.75-1.92,3-7.55,3.44-8.7a2.08,2.08,0,0,0,.16-.64.34.34,0,0,0-.22-.34,2.42,2.42,0,0,0-.71-.08c-.16,0-.29,0-.29-.14s.16-.18.49-.18c.87,0,1.6.06,1.83.06s1.12-.06,1.64-.06c.23,0,.37,0,.37.16s-.1.16-.28.16a1.56,1.56,0,0,0-.85.21c-.23.16-.49.46-1,1.58-.69,1.64-1.16,2.58-2.1,4.73-1.12,2.55-1.94,4.46-2.33,5.33s-.56,1.3-.8,1.3-.33-.25-.66-1.07Z"/><path class="cls-4" d="M103.59,30c0-2.66,0-3.15,0-3.71s-.21-.89-.59-1a2.7,2.7,0,0,0-.63-.07c-.18,0-.28,0-.28-.17s.14-.14.42-.14c.66,0,1.76.05,2.27.05s1.47-.05,2.13-.05c.23,0,.37,0,.37.14s-.11.17-.28.17a3,3,0,0,0-.52.05c-.48.09-.62.39-.64,1s0,1.05,0,3.71v3.07c0,1.7,0,3.08.07,3.83,0,.48.18.79.7.85a6.69,6.69,0,0,0,.89.08c.2,0,.28.05.28.14s-.14.17-.33.17c-1.15,0-2.25,0-2.72,0s-1.5,0-2.2,0c-.23,0-.35,0-.35-.17s.07-.14.28-.14a2.72,2.72,0,0,0,.63-.08c.35-.06.45-.36.51-.87.08-.73.08-2.11.08-3.81Z"/><path class="cls-4" d="M112.55,35.76c0,1.37.27,1.82.62,1.94a2.76,2.76,0,0,0,.9.13c.2,0,.3,0,.3.14s-.16.17-.4.17c-1.14,0-1.84,0-2.17,0-.16,0-1,0-1.89,0-.22,0-.38,0-.38-.17s.1-.14.28-.14a3.55,3.55,0,0,0,.79-.09c.45-.14.52-.64.54-2.17l.16-10.35c0-.34,0-.59.23-.59s.35.23.64.54,2.86,3.08,5.41,5.61c1.19,1.19,3.55,3.71,3.84,4h.09l-.17-7.84c0-1.07-.18-1.4-.6-1.58a2.86,2.86,0,0,0-.92-.1c-.21,0-.28-.05-.28-.16s.19-.16.45-.16c.91,0,1.75.05,2.12.05.19,0,.85-.05,1.71-.05.22,0,.4,0,.4.16s-.1.16-.32.16a1.8,1.8,0,0,0-.52.05c-.49.14-.63.51-.64,1.49l-.19,11c0,.38-.07.54-.22.54s-.41-.19-.6-.38c-1.1-1-3.34-3.34-5.16-5.14s-3.83-4.07-4.15-4.41h-.06Z"/><path class="cls-4" d="M128.22,30c0-2.66,0-3.15,0-3.71s-.21-.89-.59-1a2.7,2.7,0,0,0-.63-.07c-.18,0-.28,0-.28-.17s.14-.14.42-.14c.66,0,1.76.05,2.27.05s1.47-.05,2.13-.05c.23,0,.37,0,.37.14s-.11.17-.28.17a3.17,3.17,0,0,0-.53.05c-.48.09-.61.39-.64,1s0,1.05,0,3.71v3.07c0,1.7,0,3.08.07,3.83,0,.48.17.79.7.85a6.54,6.54,0,0,0,.89.08c.19,0,.28.05.28.14s-.14.17-.33.17c-1.16,0-2.26,0-2.72,0s-1.5,0-2.2,0c-.23,0-.35,0-.35-.17s.07-.14.28-.14a2.72,2.72,0,0,0,.63-.08c.35-.06.45-.36.5-.87.09-.73.09-2.11.09-3.81Z"/><path class="cls-4" d="M138.53,25.91l-2.61.07c-1,0-1.44.12-1.69.5a2.47,2.47,0,0,0-.3.61c0,.15-.09.21-.19.21s-.16-.08-.16-.28.33-1.87.37-2,.1-.33.2-.33a3.75,3.75,0,0,0,.76.21c.5.05,1.17.09,1.74.09h6.93a8.08,8.08,0,0,0,1.2-.09,2.67,2.67,0,0,1,.48-.08c.12,0,.14.1.14.36s-.05,1.57-.05,2c0,.17,0,.28-.16.28s-.18-.09-.2-.35v-.19c0-.46-.51-1-2.07-1l-2.2-.05v7.16c0,1.6,0,3,.09,3.74,0,.49.16.88.68.94a6.84,6.84,0,0,0,.89.08c.2,0,.28.05.28.14s-.14.17-.33.17c-1.15,0-2.26,0-2.74,0s-1.51,0-2.21,0c-.22,0-.34,0-.34-.17s.06-.14.28-.14a2.57,2.57,0,0,0,.62-.08c.35-.06.46-.45.51-1,.09-.73.09-2.11.09-3.72Z"/><path class="cls-4" d="M152.15,33.62a3.67,3.67,0,0,0-.4-1.84c-.12-.28-2.46-4.12-3.08-5a4.29,4.29,0,0,0-1.2-1.28,1.78,1.78,0,0,0-.73-.23c-.15,0-.27,0-.27-.16s.12-.16.34-.16,1.62,0,2.2,0c.36,0,1.08,0,1.87,0,.17,0,.26,0,.26.16s-.12.12-.38.19a.33.33,0,0,0-.25.32,1.59,1.59,0,0,0,.21.6c.24.52,2.69,4.73,3,5.22.17-.42,2.38-4.26,2.62-4.8a2.21,2.21,0,0,0,.25-.91.41.41,0,0,0-.37-.43c-.16,0-.32-.07-.32-.18s.09-.16.3-.16c.57,0,1.13.05,1.64.05s1.54-.05,1.87-.05.32,0,.32.14-.14.18-.33.18a1.74,1.74,0,0,0-.77.21,2.48,2.48,0,0,0-.94.85,53.5,53.5,0,0,0-3.34,5.56,4.22,4.22,0,0,0-.26,1.75v1.43c0,.28,0,1,0,1.75,0,.51.19.89.72,1a8.28,8.28,0,0,0,.87.07c.19,0,.28.05.28.14s-.14.18-.37.18c-1.1,0-2.2-.06-2.67-.06s-1.54.06-2.19.06c-.24,0-.38,0-.38-.18s.09-.14.28-.14a2.54,2.54,0,0,0,.61-.07c.35-.07.51-.45.54-1,.05-.73.05-1.47.05-1.75Z"/><path class="cls-4" d="M50.9,12.16c0-2.66,0-3.15,0-3.71s-.17-.87-.75-1a3.12,3.12,0,0,0-.68,0c-.19,0-.3,0-.3-.16s.12-.16.39-.16c.92,0,2,0,2.55,0s1.52,0,2.15,0c.26,0,.38,0,.38.16s-.1.16-.28.16a2.07,2.07,0,0,0-.5,0c-.48.09-.62.38-.64,1s0,1.05,0,3.71v2.45c0,2.53.51,3.6,1.36,4.3a3.28,3.28,0,0,0,2.19.71,3.39,3.39,0,0,0,2.41-.94c1-1,1-2.54,1-4.34V12.16c0-2.66,0-3.15,0-3.71s-.18-.87-.75-1a2.68,2.68,0,0,0-.63,0c-.19,0-.3,0-.3-.16s.12-.16.37-.16c.89,0,2,0,2,0,.21,0,1.31,0,2,0,.25,0,.37,0,.37.16s-.11.16-.32.16a2.21,2.21,0,0,0-.51,0c-.47.09-.61.38-.64,1s0,1.05,0,3.71V14c0,1.94-.19,4-1.66,5.26a5.2,5.2,0,0,1-3.64,1.26,5.61,5.61,0,0,1-3.88-1.21c-.89-.8-1.55-2.09-1.55-4.63Z"/><path class="cls-4" d="M66.84,18.31c0,1.13.22,1.48.51,1.58a2.41,2.41,0,0,0,.8.1c.17,0,.26.07.26.16s-.14.16-.35.16c-1,0-1.68,0-2,0-.13,0-.86,0-1.63,0-.21,0-.34,0-.34-.16s.1-.16.24-.16a3.07,3.07,0,0,0,.68-.06c.4-.11.45-.5.47-1.78l.14-8.66c0-.3.1-.5.25-.5s.4.22.66.48S69,12,71.23,14.13c1,1,3,3.08,3.27,3.28h.06l-.16-6.5c0-.89-.16-1.15-.52-1.29a2.34,2.34,0,0,0-.79-.08c-.19,0-.24-.07-.24-.16s.16-.14.38-.14c.79,0,1.6,0,1.92,0,.17,0,.74,0,1.47,0,.21,0,.35,0,.35.14s-.09.16-.26.16a1.41,1.41,0,0,0-.46.05c-.42.12-.54.38-.55,1.2L75.54,20c0,.32-.12.46-.24.46a.87.87,0,0,1-.62-.31c-1-.87-2.84-2.68-4.42-4.21S67,12.6,66.71,12.35h0Z"/><path class="cls-4" d="M80.44,13.48c0-2.22,0-2.64,0-3.1s-.19-.67-.51-.77a1.73,1.73,0,0,0-.55-.07c-.16,0-.24,0-.24-.17s.12-.12.36-.12l2,0,1.94,0c.19,0,.31,0,.31.12s-.09.17-.24.17a2.3,2.3,0,0,0-.45.05c-.41.07-.53.27-.57.79s0,.88,0,3.1v2.58c0,1.41,0,2.58.07,3.2,0,.39.16.61.6.68a5.06,5.06,0,0,0,.77,0c.18,0,.24.09.24.16s-.12.16-.29.16c-1,0-2,0-2.44,0s-1.38,0-2,0c-.19,0-.29,0-.29-.16s0-.16.24-.16a1.87,1.87,0,0,0,.53,0c.31-.07.4-.27.45-.7.07-.6.07-1.77.07-3.18Z"/><path class="cls-4" d="M86.44,10.67c-.34-.81-.56-.94-1.12-1.08a2.28,2.28,0,0,0-.58-.05c-.14,0-.17-.07-.17-.16s.16-.14.37-.14c.81,0,1.67,0,2.21,0,.38,0,1.17,0,1.92,0,.18,0,.36,0,.36.14s-.11.16-.24.16a1.09,1.09,0,0,0-.59.1.34.34,0,0,0-.16.29,4.34,4.34,0,0,0,.34,1.1l2.55,6.56h0c.66-1.51,2.6-6.22,3-7.19a2,2,0,0,0,.14-.53c0-.16-.07-.2-.21-.26a2.46,2.46,0,0,0-.6-.07c-.14,0-.26,0-.26-.16s.14-.13.43-.13c.76,0,1.43,0,1.62,0l1.42,0c.19,0,.32,0,.32.13s-.09.16-.25.16a1.22,1.22,0,0,0-.74.18c-.18.13-.39.36-.79,1.29-.6,1.37-1,2.16-1.82,4-1,2.14-1.67,3.73-2,4.47s-.52,1.07-.72,1.07-.32-.19-.62-.88Z"/><path class="cls-4" d="M99.26,13.48c0-2.22,0-2.64,0-3.1s-.17-.65-.65-.79A2.47,2.47,0,0,0,98,9.54c-.16,0-.25,0-.25-.16s.12-.14.34-.14c.79,0,1.76,0,2.18,0s3.84,0,4.13,0a6.33,6.33,0,0,0,.64-.08l.24-.07c.09,0,.11.07.11.14a4.94,4.94,0,0,0-.12.94c0,.16-.06.79-.09,1s0,.24-.17.24-.12-.06-.12-.18a1.4,1.4,0,0,0-.1-.54c-.13-.26-.25-.46-1-.53-.26,0-2.07-.07-2.38-.07-.06,0-.1.05-.1.14v3.61c0,.08,0,.16.1.16.35,0,2.31,0,2.65,0s.59-.07.73-.23.17-.19.24-.19.12.07.12.16,0,.32-.12,1.07c0,.29-.07.88-.07,1s0,.32-.16.32-.14-.05-.14-.12,0-.34,0-.53-.28-.52-.85-.57c-.27,0-2-.07-2.37-.07-.07,0-.08.07-.08.16v1.17c0,.5,0,1.74,0,2.17,0,1,.49,1.22,2,1.22a4.15,4.15,0,0,0,1.43-.19c.4-.17.55-.48.65-1.09,0-.16.07-.22.18-.22s.13.19.13.34a8.76,8.76,0,0,1-.21,1.62c-.1.38-.24.38-.8.38-1.13,0-2,0-2.78-.05s-1.31,0-1.76,0h-.86c-.36,0-.74,0-1,0s-.29,0-.29-.16,0-.16.24-.16a3.07,3.07,0,0,0,.53,0c.31-.07.4-.35.45-.78.07-.62.07-1.77.07-3.11Z"/><path class="cls-4" d="M109.25,13.48c0-2.22,0-2.64,0-3.1s-.17-.65-.65-.79a2.43,2.43,0,0,0-.6-.05c-.16,0-.26,0-.26-.16s.12-.14.34-.14c.79,0,1.76,0,2.07,0l2.35,0a5.28,5.28,0,0,1,2.88.62,2.55,2.55,0,0,1,1.07,2c0,1.08-.62,2.05-2.1,3.23,1.34,1.65,2.41,3,3.32,3.89a2.83,2.83,0,0,0,1.62,1,1.1,1.1,0,0,0,.36,0,.19.19,0,0,1,.19.16c0,.12-.11.16-.29.16h-1.44a3.28,3.28,0,0,1-1.66-.29,6.73,6.73,0,0,1-2.06-2.15c-.6-.79-1.24-1.77-1.43-2a.35.35,0,0,0-.27-.11l-1.36,0a.11.11,0,0,0-.12.1v.23c0,1.35,0,2.49.09,3.11,0,.43.11.7.58.77a4.6,4.6,0,0,0,.74,0,.19.19,0,0,1,.19.16c0,.11-.12.16-.31.16-.88,0-2.13,0-2.36,0s-1.25,0-1.86,0c-.18,0-.29,0-.29-.16s0-.16.24-.16a2,2,0,0,0,.54,0c.31-.07.39-.34.44-.77.07-.62.07-1.77.07-3.11Zm1.92,1.13c0,.16,0,.21.14.26a4.42,4.42,0,0,0,1.15.14,1.59,1.59,0,0,0,1.07-.24,2.47,2.47,0,0,0,1-2.17A2.3,2.3,0,0,0,112.2,10a6.55,6.55,0,0,0-.89.05.19.19,0,0,0-.14.21Z"/><path class="cls-4" d="M120.65,20.11c-.24-.1-.29-.17-.29-.49,0-.8.07-1.71.09-1.95s.07-.37.18-.37.16.13.16.24a2.83,2.83,0,0,0,.14.76,2.33,2.33,0,0,0,2.4,1.44,1.9,1.9,0,0,0,2.1-1.86c0-.64-.16-1.28-1.5-2.07l-.87-.51c-1.79-1-2.37-2-2.37-3.32,0-1.79,1.72-2.94,3.81-2.94a8.6,8.6,0,0,1,2.15.24c.14,0,.21.09.21.19s0,.6,0,1.76c0,.31-.07.46-.19.46s-.16-.08-.16-.26a1.59,1.59,0,0,0-.4-1,2,2,0,0,0-1.68-.68c-1.09,0-2.06.56-2.06,1.56,0,.65.24,1.17,1.6,1.92l.61.35c2,1.1,2.62,2.21,2.62,3.54a3.11,3.11,0,0,1-1.51,2.73,4.4,4.4,0,0,1-2.53.6A6.12,6.12,0,0,1,120.65,20.11Z"/><path class="cls-4" d="M131.19,13.48c0-2.22,0-2.64,0-3.1s-.19-.67-.52-.77a1.7,1.7,0,0,0-.55-.07c-.16,0-.24,0-.24-.17s.12-.12.36-.12l2,0,1.94,0c.19,0,.31,0,.31.12s-.08.17-.24.17a2.3,2.3,0,0,0-.45.05c-.41.07-.53.27-.56.79s0,.88,0,3.1v2.58c0,1.41,0,2.58.07,3.2.05.39.16.61.6.68a5.11,5.11,0,0,0,.78,0c.17,0,.24.09.24.16s-.12.16-.29.16c-1,0-2,0-2.45,0s-1.37,0-2,0c-.19,0-.3,0-.3-.16s.06-.16.24-.16a2,2,0,0,0,.54,0c.31-.07.39-.27.44-.7.07-.6.07-1.77.07-3.18Z"/><path class="cls-4" d="M140.63,10.14l-2.25,0c-.88,0-1.24.12-1.46.45a1.83,1.83,0,0,0-.26.5c0,.12-.07.19-.17.19s-.14-.09-.14-.24.29-1.66.32-1.78.09-.27.17-.27.28.12.66.17,1,.07,1.51.07h6.14a7,7,0,0,0,1-.07c.24,0,.36-.07.42-.07s.12.09.12.31,0,1.39,0,1.77c0,.16-.05.24-.14.24s-.16-.07-.17-.29l0-.16c0-.38-.43-.82-1.78-.84l-1.91,0v5.92c0,1.34,0,2.5.08,3.13,0,.42.14.69.59.76a6.64,6.64,0,0,0,.77,0c.17,0,.24.09.24.16s-.12.16-.29.16c-1,0-2,0-2.44,0s-1.38,0-2,0c-.19,0-.29,0-.29-.16s0-.16.24-.16a1.87,1.87,0,0,0,.53,0c.31-.07.4-.34.45-.77.07-.62.07-1.78.07-3.12Z"/><path class="cls-4" d="M152.27,16.5a2.92,2.92,0,0,0-.35-1.53c-.1-.23-2.16-3.44-2.7-4.22a3.48,3.48,0,0,0-1-1,1.54,1.54,0,0,0-.64-.19c-.12,0-.22,0-.22-.16s.1-.14.29-.14,1.39,0,1.89,0c.32,0,1,0,1.72,0,.14,0,.23,0,.23.14s-.11.12-.35.19-.2.1-.2.23a1.12,1.12,0,0,0,.18.49c.28.45,2.26,3.87,2.52,4.29.19-.35,2-3.48,2.25-3.93a1.9,1.9,0,0,0,.22-.77c0-.14-.07-.27-.32-.32s-.27-.05-.27-.17.08-.14.26-.14l1.47,0,1.62,0c.17,0,.28,0,.28.12s-.12.17-.3.17a2.15,2.15,0,0,0-.65.17,2.2,2.2,0,0,0-.79.69,48.35,48.35,0,0,0-2.94,4.68,3.3,3.3,0,0,0-.19,1.46V17.7c0,.24,0,.84,0,1.46,0,.43.17.71.62.78a6.47,6.47,0,0,0,.76,0c.17,0,.26.08.26.16s-.12.16-.33.16c-.95,0-2,0-2.37,0s-1.39,0-2,0c-.21,0-.32,0-.32-.16s.06-.16.24-.16a3.07,3.07,0,0,0,.53,0c.31-.07.43-.35.46-.78.06-.62.06-1.22.06-1.46Z"/><path class="cls-4" d="M50.94,31.22a2.94,2.94,0,0,1,3.23-2.91c1.94,0,3.14,1.07,3.14,2.78a3,3,0,0,1-3.22,3A2.91,2.91,0,0,1,50.94,31.22Zm5.23.14c0-1.65-1-2.66-2.23-2.66-.86,0-1.86.46-1.86,2.29,0,1.53.87,2.73,2.32,2.73.54,0,1.77-.25,1.77-2.37Z"/><path class="cls-4" d="M59.56,31.89c0,.72,0,1.24,0,1.56s.08.36.31.39a2.31,2.31,0,0,0,.37,0c.1,0,.14,0,.14.08s-.06.08-.16.08c-.49,0-1,0-1.24,0l-1,0c-.11,0-.16,0-.16-.08s0-.08.11-.08l.27,0c.16,0,.2-.17.23-.39s0-.87,0-1.58V30.56c0-1.12,0-1.34,0-1.58a.36.36,0,0,0-.33-.4,1,1,0,0,0-.3,0c-.07,0-.13,0-.13-.08s.06-.07.18-.07h3.28a1.66,1.66,0,0,0,.32,0c.05,0,.08,0,.13,0s0,0,0,.06,0,.15-.06.34,0,.51,0,.6,0,.15-.08.15-.09,0-.09-.12a.54.54,0,0,0-.05-.28.51.51,0,0,0-.48-.23l-1.28,0s-.07,0-.07.11v1.8s0,.07,0,.07H61a.39.39,0,0,0,.32-.13c0-.05.07-.08.11-.08s0,0,0,.07,0,.25-.06.48,0,.49,0,.54,0,.16-.09.16-.07-.05-.07-.1a.86.86,0,0,0-.05-.23.39.39,0,0,0-.37-.27c-.19,0-1.1,0-1.23,0s0,0,0,.06Z"/></g></g></g></svg>